# Blender v2.79 (sub 0) OBJ File: 'goldenspike.obj'
# www.blender.org
mtllib goldenspike.mtl
o goldenspike
v -0.357210 -2.601797 0.288922
v 0.357210 -3.621491 -0.013711
v 0.357210 -2.601797 0.288922
v 0.345818 2.829270 0.922933
v -0.541091 2.952060 1.235821
v -0.345818 2.829270 0.922933
v 0.357210 2.550978 -0.425498
v 0.357210 -2.601797 -0.425498
v -0.357210 2.550978 0.288922
v -0.357210 -2.601797 -0.425498
v -0.357210 2.550978 -0.425498
v 0.541091 2.952060 -0.741485
v 0.541090 2.952060 1.235822
v -0.541091 2.952060 -0.741486
v -0.345818 2.829270 -0.664266
v 0.345818 2.829270 -0.664266
v -0.541091 3.059441 -0.741486
v -0.357210 -3.621491 -0.122865
v 0.357210 -3.621491 -0.122865
v -0.357210 -3.621491 -0.013711
v -0.541091 3.059441 1.235821
v 0.187381 3.192284 0.478737
v -0.187381 3.192284 0.478737
v 0.541091 3.059441 -0.741485
v 0.541090 3.059441 1.235822
v -0.187381 3.192284 0.015598
v 0.187381 3.192284 0.015598
v 0.357210 2.550978 0.288922
vn 0.0000 -0.2845 0.9587
vn -0.0000 -0.9309 0.3653
vn 1.0000 -0.0000 0.0000
vn -0.0000 -0.0000 1.0000
vn -1.0000 -0.0000 -0.0000
vn 0.0000 0.0000 -1.0000
vn 0.5323 -0.8465 0.0000
vn -0.5323 -0.8465 0.0000
vn 0.0000 -0.5324 -0.8465
vn 0.0000 -1.0000 -0.0000
vn 0.0000 -0.2845 -0.9587
vn -0.0000 0.9850 0.1728
vn 0.0000 1.0000 0.0000
vn 0.3516 0.9362 0.0000
vn -0.3516 0.9362 0.0000
vn 0.0000 0.9850 -0.1728
vn 0.0000 -0.6512 -0.7589
vn -0.9992 0.0409 0.0000
vn 0.9992 0.0409 0.0000
vn -0.0000 -0.9157 0.4019
usemtl goldspike
s 1
f 1//1 2//1 3//1
f 4//2 5//2 6//2
f 7//3 3//3 8//3
f 3//4 9//4 1//4
f 9//5 10//5 1//5
f 8//6 11//6 7//6
f 4//7 12//7 13//7
f 6//8 14//8 15//8
f 15//9 12//9 16//9
f 5//5 17//5 14//5
f 2//10 18//10 19//10
f 8//11 18//11 10//11
f 3//3 19//3 8//3
f 10//5 20//5 1//5
f 21//12 22//12 23//12
f 14//6 24//6 12//6
f 13//4 21//4 5//4
f 12//3 25//3 13//3
f 26//13 22//13 27//13
f 25//14 27//14 22//14
f 21//15 26//15 17//15
f 24//16 26//16 27//16
f 11//17 16//17 7//17
f 9//18 15//18 11//18
f 28//19 16//19 4//19
f 28//20 6//20 9//20
f 1//1 20//1 2//1
f 4//2 13//2 5//2
f 7//3 28//3 3//3
f 3//4 28//4 9//4
f 9//5 11//5 10//5
f 8//6 10//6 11//6
f 4//7 16//7 12//7
f 6//8 5//8 14//8
f 15//9 14//9 12//9
f 5//5 21//5 17//5
f 2//10 20//10 18//10
f 8//11 19//11 18//11
f 3//3 2//3 19//3
f 10//5 18//5 20//5
f 21//12 25//12 22//12
f 14//6 17//6 24//6
f 13//4 25//4 21//4
f 12//3 24//3 25//3
f 26//13 23//13 22//13
f 25//14 24//14 27//14
f 21//15 23//15 26//15
f 24//16 17//16 26//16
f 11//17 15//17 16//17
f 9//18 6//18 15//18
f 28//19 7//19 16//19
f 28//20 4//20 6//20
