# Blender v2.79 (sub 0) OBJ File: 'goldenspike.blend'
# www.blender.org
mtllib goldenspike.mtl
o goldenspike
v 0.478599 -3.485958 -0.570094
v 0.478599 -3.485958 0.387105
v -0.478600 -3.485958 0.387105
v -0.478599 -3.485958 -0.570094
v 0.478600 3.417869 -0.570094
v 0.478599 3.417869 0.387106
v -0.478600 3.417869 0.387105
v -0.478600 3.417869 -0.570094
v 0.724968 3.955249 -0.993462
v 0.724967 3.955249 1.655787
v -0.724968 3.955249 -0.993463
v -0.724968 3.955249 1.655786
v 0.478599 -4.852172 -0.164618
v 0.478599 -4.852172 -0.018370
v -0.478599 -4.852172 -0.164618
v -0.478600 -4.852172 -0.018370
v 0.724968 4.099121 -0.993462
v 0.724967 4.099121 1.655787
v -0.724968 4.099121 -0.993463
v -0.724968 4.099121 1.655786
v 0.251058 4.277108 0.020899
v 0.251058 4.277108 0.641425
v -0.251058 4.277108 0.020899
v -0.251058 4.277108 0.641425
v 0.463336 3.790732 1.236570
v -0.463336 3.790732 1.236570
v 0.463336 3.790732 -0.890001
v -0.463336 3.790732 -0.890002
vn -0.0000 -0.2845 0.9587
vn -0.0000 -0.9309 0.3653
vn 1.0000 -0.0000 0.0000
vn 0.0000 0.0000 1.0000
vn -1.0000 -0.0000 -0.0000
vn 0.0000 0.0000 -1.0000
vn 0.5323 -0.8465 0.0000
vn -0.5323 -0.8465 0.0000
vn 0.0000 -0.5324 -0.8465
vn 0.0000 -1.0000 0.0000
vn 0.0000 -0.2845 -0.9587
vn -0.0000 0.9850 0.1728
vn 0.0000 1.0000 -0.0000
vn 0.3516 0.9362 -0.0000
vn -0.3516 0.9362 0.0000
vn 0.0000 0.9850 -0.1728
vn 0.0000 -0.6512 -0.7589
vn -0.9992 0.0409 -0.0000
vn 0.9992 0.0409 0.0000
vn -0.0000 -0.9157 0.4019
usemtl goldspike
s off
f 3//1 14//1 2//1
f 25//2 12//2 26//2
f 5//3 2//3 1//3
f 2//4 7//4 3//4
f 7//5 4//5 3//5
f 1//6 8//6 5//6
f 25//7 9//7 10//7
f 26//8 11//8 28//8
f 28//9 9//9 27//9
f 12//5 19//5 11//5
f 14//10 15//10 13//10
f 1//11 15//11 4//11
f 2//3 13//3 1//3
f 4//5 16//5 3//5
f 20//12 22//12 24//12
f 11//6 17//6 9//6
f 10//4 20//4 12//4
f 9//3 18//3 10//3
f 23//13 22//13 21//13
f 18//14 21//14 22//14
f 20//15 23//15 19//15
f 17//16 23//16 21//16
f 8//17 27//17 5//17
f 7//18 28//18 8//18
f 6//19 27//19 25//19
f 6//20 26//20 7//20
f 3//1 16//1 14//1
f 25//2 10//2 12//2
f 5//3 6//3 2//3
f 2//4 6//4 7//4
f 7//5 8//5 4//5
f 1//6 4//6 8//6
f 25//7 27//7 9//7
f 26//8 12//8 11//8
f 28//9 11//9 9//9
f 12//5 20//5 19//5
f 14//10 16//10 15//10
f 1//11 13//11 15//11
f 2//3 14//3 13//3
f 4//5 15//5 16//5
f 20//12 18//12 22//12
f 11//6 19//6 17//6
f 10//4 18//4 20//4
f 9//3 17//3 18//3
f 23//13 24//13 22//13
f 18//14 17//14 21//14
f 20//15 24//15 23//15
f 17//16 19//16 23//16
f 8//17 28//17 27//17
f 7//18 26//18 28//18
f 6//19 5//19 27//19
f 6//20 25//20 26//20
