# Blender v2.79 (sub 0) OBJ File: 'goldenspike.blend'
# www.blender.org
mtllib goldenspike.mtl
o Cube
v 0.372676 1.189891 -0.322260
v 0.372676 1.189891 0.423092
v -0.372676 1.189891 0.423091
v -0.372676 1.189891 -0.322260
v 0.372676 6.787797 -0.322260
v 0.372675 6.787797 0.423092
v -0.372676 6.787797 0.423091
v -0.372676 6.787797 -0.322260
v 0.564518 6.984206 -0.651928
v 0.564517 6.984206 1.410988
v -0.564518 6.984206 -0.651928
v -0.564518 6.984206 1.410987
v 0.372676 0.126048 -0.006524
v 0.372676 0.126048 0.107356
v -0.372676 0.126048 -0.006524
v -0.372676 0.126048 0.107356
v 0.564518 7.096236 -0.651928
v 0.564517 7.096236 1.410988
v -0.564518 7.096236 -0.651928
v -0.564518 7.096236 1.410987
v 0.195494 7.234831 0.137935
v 0.195494 7.234831 0.621125
v -0.195494 7.234831 0.137934
v -0.195494 7.234831 0.621125
vn -0.0000 -0.2845 0.9587
vn -0.0000 -0.9808 0.1950
vn 1.0000 -0.0000 0.0000
vn 0.0000 -0.0000 1.0000
vn -1.0000 -0.0000 -0.0000
vn 0.0000 0.0000 -1.0000
vn 0.7154 -0.6987 0.0000
vn -0.7154 -0.6987 0.0000
vn 0.0000 -0.8591 -0.5118
vn 0.0000 -1.0000 0.0000
vn 0.0000 -0.2845 -0.9587
vn 0.0000 0.9850 0.1728
vn 0.0000 1.0000 0.0000
vn 0.3516 0.9362 -0.0000
vn -0.3516 0.9362 0.0000
vn 0.0000 0.9850 -0.1728
usemtl goldspike
s off
f 3//1 14//1 2//1
f 6//2 12//2 7//2
f 5//3 2//3 1//3
f 6//4 3//4 2//4
f 7//5 4//5 3//5
f 1//6 8//6 5//6
f 6//7 9//7 10//7
f 7//8 11//8 8//8
f 8//9 9//9 5//9
f 12//5 19//5 11//5
f 14//10 15//10 13//10
f 1//11 15//11 4//11
f 2//3 13//3 1//3
f 4//5 16//5 3//5
f 20//12 22//12 24//12
f 11//6 17//6 9//6
f 10//4 20//4 12//4
f 9//3 18//3 10//3
f 23//13 22//13 21//13
f 18//14 21//14 22//14
f 20//15 23//15 19//15
f 17//16 23//16 21//16
f 3//1 16//1 14//1
f 6//2 10//2 12//2
f 5//3 6//3 2//3
f 6//4 7//4 3//4
f 7//5 8//5 4//5
f 1//6 4//6 8//6
f 6//7 5//7 9//7
f 7//8 12//8 11//8
f 8//9 11//9 9//9
f 12//5 20//5 19//5
f 14//10 16//10 15//10
f 1//11 13//11 15//11
f 2//3 14//3 13//3
f 4//5 15//5 16//5
f 20//12 18//12 22//12
f 11//6 19//6 17//6
f 10//4 18//4 20//4
f 9//3 17//3 18//3
f 23//13 24//13 22//13
f 18//14 17//14 21//14
f 20//15 24//15 23//15
f 17//16 19//16 23//16
