# Blender v2.79 (sub 0) OBJ File: 'walcarka + rolki transmisyjne.blend'
# www.blender.org
mtllib carbon_steel_block.mtl
o Cube.2040_Cube.2280
v -213.500000 -542.500000 694.500000
v -213.500000 -541.500000 694.500000
v -213.500000 -542.500000 693.500000
v -213.500000 -541.500000 693.500000
v -212.500000 -542.500000 694.500000
v -212.500000 -541.500000 694.500000
v -212.500000 -542.500000 693.500000
v -212.500000 -541.500000 693.500000
vt 0.976000 0.264000
vt 0.722667 0.264000
vt 0.722667 0.010667
vt 0.976000 0.010667
vt 0.992000 0.258667
vt 0.738667 0.258667
vt 0.738667 0.008000
vt 0.992000 0.008000
vt 0.976000 0.261333
vt 0.722667 0.261333
vt 0.722667 0.008000
vt 0.976000 0.008000
vt 0.722667 0.274667
vt 0.722667 0.024000
vt 0.976000 0.024000
vt 0.976000 0.274667
vt 0.970667 0.266667
vt 0.720000 0.266667
vt 0.720000 0.013333
vt 0.970667 0.013333
vt 0.973333 0.266667
vt 0.973333 0.520000
vt 0.720000 0.520000
vt 0.720000 0.266667
vn -1.0000 0.0000 0.0000
vn 0.0000 0.0000 -1.0000
vn 1.0000 0.0000 0.0000
vn 0.0000 0.0000 1.0000
vn 0.0000 -1.0000 0.0000
vn 0.0000 1.0000 0.0000
usemtl Material.014
s off
f 1/1/1 2/2/1 4/3/1 3/4/1
f 3/5/2 4/6/2 8/7/2 7/8/2
f 7/9/3 8/10/3 6/11/3 5/12/3
f 5/13/4 6/14/4 2/15/4 1/16/4
f 3/17/5 7/18/5 5/19/5 1/20/5
f 8/21/6 4/22/6 2/23/6 6/24/6
