# Blender v2.79 (sub 0) OBJ File: 'Paint Brush.blend'
# www.blender.org
mtllib paint_brush.mtl
o Cube.001_Cube.002
v -0.013500 -0.038544 0.015000
v -0.013500 -0.038544 -0.015000
v 0.013500 -0.038544 0.015000
v 0.013500 -0.038544 -0.015000
v 0.049500 0.091456 0.015000
v 0.049500 0.091456 -0.015000
v -0.049500 0.091456 0.015000
v -0.049500 0.091456 -0.015000
v 0.036302 0.057738 0.015000
v 0.049500 0.072120 0.015000
v 0.045635 0.061751 0.015000
v 0.049500 0.072120 -0.015000
v 0.036302 0.057738 -0.015000
v 0.045635 0.061751 -0.015000
v -0.049500 0.072120 0.015000
v -0.036302 0.057738 0.015000
v -0.045635 0.061751 0.015000
v -0.036302 0.057738 -0.015000
v -0.049500 0.072120 -0.015000
v -0.045635 0.061751 -0.015000
v -0.051200 0.075728 0.017833
v -0.051200 0.098184 0.017833
v -0.051200 0.075728 -0.017833
v -0.051200 0.098184 -0.017833
v 0.051200 0.075728 0.017833
v 0.051200 0.098184 0.017833
v 0.051200 0.075728 -0.017833
v 0.051200 0.098184 -0.017833
v -0.032628 0.057456 0.015000
v -0.023253 0.053927 0.015000
v -0.017294 0.045595 0.015000
v -0.014486 0.032475 0.015000
v -0.032628 0.057456 -0.015000
v -0.014486 0.032475 -0.015000
v -0.017294 0.045595 -0.015000
v -0.023253 0.053927 -0.015000
v 0.032628 0.057456 0.015000
v 0.014486 0.032475 0.015000
v 0.017294 0.045595 0.015000
v 0.023253 0.053927 0.015000
v 0.032628 0.057456 -0.015000
v 0.023253 0.053927 -0.015000
v 0.017294 0.045595 -0.015000
v 0.014486 0.032475 -0.015000
v -0.044640 0.082807 0.012455
v -0.044640 0.164096 0.005605
v -0.044640 0.082807 -0.012455
v -0.044640 0.164096 -0.005605
v 0.044640 0.082807 0.012455
v 0.044640 0.164096 0.005605
v 0.044640 0.082807 -0.012455
v 0.044640 0.164096 -0.005605
v -0.002160 0.082807 0.013077
v -0.002160 0.166328 0.005885
v -0.002160 0.082807 -0.013077
v -0.002160 0.166328 -0.005885
v 0.002160 0.082807 0.013077
v 0.002160 0.166328 0.005885
v 0.002160 0.082807 -0.013077
v 0.002160 0.166328 -0.005885
v 0.037840 0.082807 0.013077
v 0.037840 0.166328 0.005885
v 0.037840 0.082807 -0.013077
v 0.037840 0.166328 -0.005885
v 0.042160 0.082807 0.013077
v 0.042160 0.166328 0.005885
v 0.042160 0.082807 -0.013077
v 0.042160 0.166328 -0.005885
v 0.027840 0.082807 0.013077
v 0.027840 0.166328 0.005885
v 0.027840 0.082807 -0.013077
v 0.027840 0.166328 -0.005885
v 0.032160 0.082807 0.013077
v 0.032160 0.166328 0.005885
v 0.032160 0.082807 -0.013077
v 0.032160 0.166328 -0.005885
v 0.017840 0.082807 0.013077
v 0.017840 0.166328 0.005885
v 0.017840 0.082807 -0.013077
v 0.017840 0.166328 -0.005885
v 0.022160 0.082807 0.013077
v 0.022160 0.166328 0.005885
v 0.022160 0.082807 -0.013077
v 0.022160 0.166328 -0.005885
v 0.007840 0.082807 0.013077
v 0.007840 0.166328 0.005885
v 0.007840 0.082807 -0.013077
v 0.007840 0.166328 -0.005885
v 0.012160 0.082807 0.013077
v 0.012160 0.166328 0.005885
v 0.012160 0.082807 -0.013077
v 0.012160 0.166328 -0.005885
v -0.012160 0.082807 0.013077
v -0.012160 0.166328 0.005885
v -0.012160 0.082807 -0.013077
v -0.012160 0.166328 -0.005885
v -0.007840 0.082807 0.013077
v -0.007840 0.166328 0.005885
v -0.007840 0.082807 -0.013077
v -0.007840 0.166328 -0.005885
v -0.022160 0.082807 0.013077
v -0.022160 0.166328 0.005885
v -0.022160 0.082807 -0.013077
v -0.022160 0.166328 -0.005885
v -0.017840 0.082807 0.013077
v -0.017840 0.166328 0.005885
v -0.017840 0.082807 -0.013077
v -0.017840 0.166328 -0.005885
v -0.032160 0.082807 0.013077
v -0.032160 0.166328 0.005885
v -0.032160 0.082807 -0.013077
v -0.032160 0.166328 -0.005885
v -0.027840 0.082807 0.013077
v -0.027840 0.166328 0.005885
v -0.027840 0.082807 -0.013077
v -0.027840 0.166328 -0.005885
v -0.042160 0.082807 0.013077
v -0.042160 0.166328 0.005885
v -0.042160 0.082807 -0.013077
v -0.042160 0.166328 -0.005885
v -0.037840 0.082807 0.013077
v -0.037840 0.166328 0.005885
v -0.037840 0.082807 -0.013077
v -0.037840 0.166328 -0.005885
vt 0.630297 0.322750
vt 0.576953 0.449002
vt 0.576953 0.322750
vt 0.576953 0.610815
vt 0.630297 0.484564
vt 0.630297 0.610815
vt 0.659022 0.852445
vt 0.712365 0.905789
vt 0.659022 0.905789
vt 0.892617 0.865077
vt 0.899876 0.918421
vt 0.892617 0.918421
vt 0.248938 0.052076
vt 0.248938 0.017781
vt 0.282271 0.078083
vt 0.140790 0.917088
vt 0.106438 0.863744
vt 0.140790 0.863744
vt 0.052133 0.917088
vt 0.017781 0.863744
vt 0.052133 0.863744
vt 0.595548 0.865193
vt 0.602807 0.918537
vt 0.595548 0.918537
vt 0.180042 0.078083
vt 0.161518 0.084343
vt 0.213375 0.017781
vt 0.159533 0.917088
vt 0.918314 0.918421
vt 0.899876 0.865077
vt 0.918314 0.865077
vt 0.070876 0.917088
vt 0.621245 0.918537
vt 0.602807 0.865193
vt 0.621245 0.865193
vt 0.747928 0.899150
vt 0.787822 0.835732
vt 0.787822 0.899150
vt 0.519921 0.017781
vt 0.480094 0.220092
vt 0.480094 0.017781
vt 0.270599 0.927162
vt 0.310493 0.863744
vt 0.310493 0.927162
vt 0.555484 0.220092
vt 0.595312 0.017781
vt 0.595312 0.220092
vt 0.477972 0.283910
vt 0.541391 0.486221
vt 0.477972 0.486221
vt 0.442410 0.486221
vt 0.378991 0.283910
vt 0.442410 0.283910
vt 0.577025 0.865193
vt 0.630297 0.283910
vt 0.576953 0.299208
vt 0.576953 0.283910
vt 0.630297 0.299208
vt 0.874094 0.918421
vt 0.874094 0.865077
vt 0.576953 0.649655
vt 0.630297 0.634358
vt 0.630297 0.649655
vt 0.576953 0.634358
vt 0.589133 0.685218
vt 0.621245 0.829631
vt 0.576953 0.829631
vt 0.198386 0.460300
vt 0.343429 0.283910
vt 0.343429 0.460300
vt 0.807192 0.017781
vt 0.839303 0.162194
vt 0.795012 0.162194
vt 0.017781 0.460300
vt 0.162824 0.283910
vt 0.162824 0.460300
vt 0.849928 0.460300
vt 0.829997 0.283910
vt 0.849928 0.283910
vt 0.030570 0.495863
vt 0.064287 0.644241
vt 0.017781 0.644241
vt 0.962288 0.680470
vt 0.970822 0.829514
vt 0.962288 0.829514
vt 0.760717 0.651791
vt 0.794434 0.800169
vt 0.747928 0.800169
vt 0.918963 0.017781
vt 0.927497 0.166826
vt 0.918963 0.166826
vt 0.461060 0.911259
vt 0.469594 0.890332
vt 0.469594 0.911259
vt 0.678648 0.283910
vt 0.712365 0.432288
vt 0.665859 0.432288
vt 0.874094 0.495863
vt 0.882628 0.644907
vt 0.874094 0.644907
vt 0.760717 0.467851
vt 0.794434 0.616229
vt 0.747928 0.616229
vt 0.829997 0.495863
vt 0.838531 0.644907
vt 0.829997 0.644907
vt 0.763165 0.222650
vt 0.771700 0.201722
vt 0.771700 0.222650
vt 0.194708 0.495863
vt 0.228425 0.644241
vt 0.181919 0.644241
vt 0.918191 0.680470
vt 0.926725 0.829514
vt 0.918191 0.829514
vt 0.194708 0.679803
vt 0.228425 0.828181
vt 0.181919 0.828181
vt 0.829997 0.680470
vt 0.838531 0.829514
vt 0.829997 0.829514
vt 0.630874 0.222650
vt 0.639409 0.201722
vt 0.639409 0.222650
vt 0.276776 0.495863
vt 0.310493 0.644241
vt 0.263987 0.644241
vt 0.962288 0.495863
vt 0.970822 0.644907
vt 0.962288 0.644907
vt 0.112639 0.679803
vt 0.146356 0.828182
vt 0.099850 0.828182
vt 0.874094 0.680470
vt 0.882628 0.829514
vt 0.874094 0.829514
vt 0.807262 0.222650
vt 0.815797 0.201722
vt 0.815797 0.222650
vt 0.678648 0.484564
vt 0.712365 0.632942
vt 0.665859 0.632942
vt 0.973684 0.283910
vt 0.982219 0.432955
vt 0.973684 0.432955
vt 0.760717 0.283910
vt 0.794434 0.432288
vt 0.747928 0.432288
vt 0.918191 0.495863
vt 0.926725 0.644907
vt 0.918191 0.644907
vt 0.226502 0.884672
vt 0.235037 0.863744
vt 0.235037 0.884672
vt 0.112639 0.495863
vt 0.146356 0.644241
vt 0.099850 0.644241
vt 0.963060 0.017781
vt 0.971594 0.166826
vt 0.963060 0.166826
vt 0.678648 0.668505
vt 0.712365 0.816883
vt 0.665859 0.816883
vt 0.416963 0.705724
vt 0.425497 0.854769
vt 0.416963 0.854769
vt 0.829997 0.886005
vt 0.838531 0.865077
vt 0.838531 0.886005
vt 0.391780 0.521784
vt 0.425497 0.670162
vt 0.378991 0.670162
vt 0.929587 0.283910
vt 0.938122 0.432955
vt 0.929587 0.432955
vt 0.276776 0.679803
vt 0.310493 0.828182
vt 0.263987 0.828182
vt 0.874866 0.017781
vt 0.883400 0.166826
vt 0.874866 0.166826
vt 0.874866 0.223316
vt 0.883400 0.202388
vt 0.883400 0.223316
vt 0.473849 0.521784
vt 0.507566 0.670162
vt 0.461060 0.670162
vt 0.461060 0.705724
vt 0.469594 0.854769
vt 0.461060 0.854769
vt 0.725732 0.017781
vt 0.759449 0.166159
vt 0.712943 0.166159
vt 0.372866 0.705724
vt 0.381400 0.854769
vt 0.372866 0.854769
vt 0.674971 0.222650
vt 0.683506 0.201722
vt 0.683506 0.222650
vt 0.643663 0.017781
vt 0.677380 0.166159
vt 0.630874 0.166159
vt 0.505157 0.705724
vt 0.513691 0.854769
vt 0.505157 0.854769
vt 0.030570 0.679803
vt 0.064287 0.828182
vt 0.017781 0.828182
vt 0.885490 0.283910
vt 0.894025 0.432955
vt 0.885490 0.432955
vt 0.719068 0.222650
vt 0.727603 0.201722
vt 0.727603 0.222650
vt 0.630297 0.449002
vt 0.576953 0.484564
vt 0.712365 0.852445
vt 0.375354 0.122389
vt 0.373406 0.248348
vt 0.320063 0.248348
vt 0.318115 0.122389
vt 0.380901 0.099119
vt 0.312567 0.099119
vt 0.392674 0.084343
vt 0.300794 0.084343
vt 0.436894 0.070466
vt 0.418457 0.077584
vt 0.444531 0.052075
vt 0.411198 0.078083
vt 0.444531 0.017781
vt 0.275012 0.077584
vt 0.256575 0.070466
vt 0.106438 0.917088
vt 0.017781 0.917088
vt 0.142250 0.248348
vt 0.088906 0.248348
vt 0.086958 0.122389
vt 0.144198 0.122389
vt 0.081411 0.099119
vt 0.149745 0.099119
vt 0.069638 0.084343
vt 0.051115 0.078083
vt 0.043856 0.077584
vt 0.017781 0.052076
vt 0.025418 0.070466
vt 0.017781 0.017781
vt 0.213375 0.052075
vt 0.205738 0.070466
vt 0.187301 0.077584
vt 0.159533 0.863744
vt 0.070876 0.863744
vt 0.747928 0.835732
vt 0.519922 0.220092
vt 0.270599 0.863744
vt 0.555484 0.017781
vt 0.541391 0.283910
vt 0.378991 0.486221
vt 0.577025 0.918537
vt 0.609064 0.685218
vt 0.198386 0.283910
vt 0.827123 0.017781
vt 0.017781 0.283910
vt 0.829997 0.460300
vt 0.051498 0.495863
vt 0.970822 0.680470
vt 0.781645 0.651791
vt 0.927497 0.017781
vt 0.461060 0.890332
vt 0.699576 0.283910
vt 0.882628 0.495863
vt 0.781645 0.467851
vt 0.838531 0.495863
vt 0.763165 0.201722
vt 0.215635 0.495863
vt 0.926725 0.680470
vt 0.215635 0.679803
vt 0.838531 0.680470
vt 0.630874 0.201722
vt 0.297704 0.495863
vt 0.970822 0.495863
vt 0.133567 0.679803
vt 0.882628 0.680470
vt 0.807262 0.201722
vt 0.699576 0.484564
vt 0.982219 0.283910
vt 0.781645 0.283910
vt 0.926725 0.495863
vt 0.226502 0.863744
vt 0.133567 0.495863
vt 0.971594 0.017781
vt 0.699576 0.668505
vt 0.425497 0.705724
vt 0.829997 0.865077
vt 0.412708 0.521784
vt 0.938122 0.283910
vt 0.297704 0.679803
vt 0.883400 0.017781
vt 0.874866 0.202388
vt 0.494777 0.521784
vt 0.469594 0.705724
vt 0.746660 0.017781
vt 0.381400 0.705724
vt 0.674971 0.201722
vt 0.664591 0.017781
vt 0.513691 0.705724
vt 0.051498 0.679803
vt 0.894025 0.283910
vt 0.719068 0.201722
vn -0.9999 -0.0139 0.0000
vn 0.9999 -0.0139 -0.0000
vn 0.0000 -1.0000 0.0000
vn 0.0764 -0.9971 0.0000
vn 0.0000 0.0000 -1.0000
vn 1.0000 0.0000 0.0000
vn -1.0000 0.0000 0.0000
vn -0.0764 -0.9971 0.0000
vn 0.0000 0.0000 1.0000
vn 0.9370 -0.3493 0.0000
vn 0.3951 -0.9187 0.0000
vn -0.9370 -0.3493 0.0000
vn -0.3951 -0.9187 0.0000
vn 0.0000 1.0000 0.0000
vn -0.3523 -0.9359 0.0000
vn -0.8134 -0.5818 0.0000
vn -0.9779 -0.2093 0.0000
vn 0.3523 -0.9359 -0.0000
vn 0.8134 -0.5818 0.0000
vn 0.9779 -0.2093 -0.0000
vn 0.0000 0.0840 -0.9965
vn 0.0000 0.0840 0.9965
vn 0.0000 0.0858 -0.9963
vn 0.0000 0.0858 0.9963
usemtl paintbrush
s off
f 34/1/1 1/2/1 32/3/1
f 38/4/2 4/5/2 44/6/2
f 4/7/3 1/8/3 2/9/3
f 41/10/4 9/11/4 37/12/4
f 19/13/5 8/14/5 33/15/5
f 12/16/6 5/17/6 10/18/6
f 15/19/7 8/20/7 19/21/7
f 29/22/8 18/23/8 33/24/8
f 29/25/9 30/26/9 7/27/9
f 10/18/10 14/28/10 12/16/10
f 11/29/11 13/30/11 14/31/11
f 19/21/12 17/32/12 15/19/12
f 20/33/13 16/34/13 17/35/13
f 22/36/7 23/37/7 21/38/7
f 24/39/5 27/40/5 23/41/5
f 28/42/6 25/43/6 27/44/6
f 26/45/9 21/46/9 25/47/9
f 27/48/3 21/49/3 23/50/3
f 24/51/14 26/52/14 28/53/14
f 33/24/15 30/54/15 29/22/15
f 36/55/16 31/56/16 30/57/16
f 35/58/17 32/3/17 31/56/17
f 41/10/18 40/59/18 42/60/18
f 40/61/19 43/62/19 42/63/19
f 39/64/20 44/6/20 43/62/20
f 46/65/7 47/66/7 45/67/7
f 48/68/21 51/69/21 47/70/21
f 52/71/6 49/72/6 51/73/6
f 50/74/22 45/75/22 49/76/22
f 48/77/14 50/78/14 52/79/14
f 54/80/7 55/81/7 53/82/7
f 56/83/23 59/84/23 55/85/23
f 60/86/6 57/87/6 59/88/6
f 58/89/24 53/90/24 57/91/24
f 56/92/14 58/93/14 60/94/14
f 62/95/7 63/96/7 61/97/7
f 64/98/23 67/99/23 63/100/23
f 68/101/6 65/102/6 67/103/6
f 66/104/24 61/105/24 65/106/24
f 64/107/14 66/108/14 68/109/14
f 70/110/7 71/111/7 69/112/7
f 72/113/23 75/114/23 71/115/23
f 76/116/6 73/117/6 75/118/6
f 74/119/24 69/120/24 73/121/24
f 72/122/14 74/123/14 76/124/14
f 78/125/7 79/126/7 77/127/7
f 80/128/23 83/129/23 79/130/23
f 84/131/6 81/132/6 83/133/6
f 82/134/24 77/135/24 81/136/24
f 80/137/14 82/138/14 84/139/14
f 86/140/7 87/141/7 85/142/7
f 88/143/23 91/144/23 87/145/23
f 92/146/6 89/147/6 91/148/6
f 90/149/24 85/150/24 89/151/24
f 88/152/14 90/153/14 92/154/14
f 94/155/7 95/156/7 93/157/7
f 96/158/23 99/159/23 95/160/23
f 100/161/6 97/162/6 99/163/6
f 98/164/24 93/165/24 97/166/24
f 96/167/14 98/168/14 100/169/14
f 102/170/7 103/171/7 101/172/7
f 104/173/23 107/174/23 103/175/23
f 108/176/6 105/177/6 107/178/6
f 106/179/24 101/180/24 105/181/24
f 104/182/14 106/183/14 108/184/14
f 110/185/7 111/186/7 109/187/7
f 112/188/23 115/189/23 111/190/23
f 116/191/6 113/192/6 115/193/6
f 114/194/24 109/195/24 113/196/24
f 112/197/14 114/198/14 116/199/14
f 118/200/7 119/201/7 117/202/7
f 120/203/23 123/204/23 119/205/23
f 124/206/6 121/207/6 123/208/6
f 122/209/24 117/210/24 121/211/24
f 120/212/14 122/213/14 124/214/14
f 34/1/1 2/215/1 1/2/1
f 38/4/2 3/216/2 4/5/2
f 4/7/3 3/217/3 1/8/3
f 41/10/4 13/30/4 9/11/4
f 44/218/5 4/219/5 2/220/5
f 44/218/5 2/220/5 34/221/5
f 43/222/5 44/218/5 34/221/5
f 43/222/5 34/221/5 35/223/5
f 42/224/5 43/222/5 35/223/5
f 42/224/5 35/223/5 36/225/5
f 14/226/5 13/227/5 12/228/5
f 13/227/5 41/229/5 12/228/5
f 41/229/5 42/224/5 6/230/5
f 42/224/5 36/225/5 6/230/5
f 33/15/5 18/231/5 19/13/5
f 18/231/5 20/232/5 19/13/5
f 36/225/5 33/15/5 8/14/5
f 8/14/5 6/230/5 36/225/5
f 6/230/5 12/228/5 41/229/5
f 12/16/6 6/233/6 5/17/6
f 15/19/7 7/234/7 8/20/7
f 29/22/8 16/34/8 18/23/8
f 1/235/9 3/236/9 38/237/9
f 1/235/9 38/237/9 32/238/9
f 38/237/9 39/239/9 32/238/9
f 32/238/9 39/239/9 31/240/9
f 39/239/9 40/241/9 31/240/9
f 37/242/9 9/243/9 10/244/9
f 9/243/9 11/245/9 10/244/9
f 31/240/9 40/241/9 30/26/9
f 40/241/9 37/242/9 5/246/9
f 30/26/9 40/241/9 5/246/9
f 10/244/9 5/246/9 37/242/9
f 5/246/9 7/27/9 30/26/9
f 7/27/9 15/247/9 29/25/9
f 15/247/9 17/248/9 16/249/9
f 29/25/9 15/247/9 16/249/9
f 10/18/10 11/250/10 14/28/10
f 11/29/11 9/11/11 13/30/11
f 19/21/12 20/251/12 17/32/12
f 20/33/13 18/23/13 16/34/13
f 22/36/7 24/252/7 23/37/7
f 24/39/5 28/253/5 27/40/5
f 28/42/6 26/254/6 25/43/6
f 26/45/9 22/255/9 21/46/9
f 27/48/3 25/256/3 21/49/3
f 24/51/14 22/257/14 26/52/14
f 33/24/15 36/258/15 30/54/15
f 36/55/16 35/58/16 31/56/16
f 35/58/17 34/1/17 32/3/17
f 41/10/18 37/12/18 40/59/18
f 40/61/19 39/64/19 43/62/19
f 39/64/20 38/4/20 44/6/20
f 46/65/7 48/259/7 47/66/7
f 48/68/21 52/260/21 51/69/21
f 52/71/6 50/261/6 49/72/6
f 50/74/22 46/262/22 45/75/22
f 48/77/14 46/263/14 50/78/14
f 54/80/7 56/264/7 55/81/7
f 56/83/23 60/265/23 59/84/23
f 60/86/6 58/266/6 57/87/6
f 58/89/24 54/267/24 53/90/24
f 56/92/14 54/268/14 58/93/14
f 62/95/7 64/269/7 63/96/7
f 64/98/23 68/270/23 67/99/23
f 68/101/6 66/271/6 65/102/6
f 66/104/24 62/272/24 61/105/24
f 64/107/14 62/273/14 66/108/14
f 70/110/7 72/274/7 71/111/7
f 72/113/23 76/275/23 75/114/23
f 76/116/6 74/276/6 73/117/6
f 74/119/24 70/277/24 69/120/24
f 72/122/14 70/278/14 74/123/14
f 78/125/7 80/279/7 79/126/7
f 80/128/23 84/280/23 83/129/23
f 84/131/6 82/281/6 81/132/6
f 82/134/24 78/282/24 77/135/24
f 80/137/14 78/283/14 82/138/14
f 86/140/7 88/284/7 87/141/7
f 88/143/23 92/285/23 91/144/23
f 92/146/6 90/286/6 89/147/6
f 90/149/24 86/287/24 85/150/24
f 88/152/14 86/288/14 90/153/14
f 94/155/7 96/289/7 95/156/7
f 96/158/23 100/290/23 99/159/23
f 100/161/6 98/291/6 97/162/6
f 98/164/24 94/292/24 93/165/24
f 96/167/14 94/293/14 98/168/14
f 102/170/7 104/294/7 103/171/7
f 104/173/23 108/295/23 107/174/23
f 108/176/6 106/296/6 105/177/6
f 106/179/24 102/297/24 101/180/24
f 104/182/14 102/298/14 106/183/14
f 110/185/7 112/299/7 111/186/7
f 112/188/23 116/300/23 115/189/23
f 116/191/6 114/301/6 113/192/6
f 114/194/24 110/302/24 109/195/24
f 112/197/14 110/303/14 114/198/14
f 118/200/7 120/304/7 119/201/7
f 120/203/23 124/305/23 123/204/23
f 124/206/6 122/306/6 121/207/6
f 122/209/24 118/307/24 117/210/24
f 120/212/14 118/308/14 122/213/14
