# Blender v2.78 (sub 0) OBJ File: ''
# www.blender.org
mtllib track_1m.mtl
o group_0.001_ID48
v 0.614300 0.196850 -0.117350
v 0.385700 0.196850 -0.168150
v 0.385700 0.196850 -0.117350
v 0.385700 0.196850 -0.371350
v 0.614300 0.196850 -0.371350
v 0.385700 0.177800 -0.168150
v 0.385700 0.177800 -0.371350
v 0.385700 0.177800 -0.117350
v 0.614300 0.177800 -0.117350
v 0.614300 0.177800 -0.371350
vn 0.0000 1.0000 0.0000
vn -1.0000 0.0000 0.0000
vn 1.0000 0.0000 0.0000
vn 0.0000 0.0000 1.0000
vn 0.0000 0.0000 -1.0000
usemtl Color_B23_
s off
f 1//1 2//1 3//1
f 2//2 6//2 8//2 3//2
f 1//1 5//1 4//1 2//1
f 10//3 5//3 1//3 9//3
f 4//2 7//2 6//2 2//2
f 1//4 3//4 8//4 9//4
f 4//5 5//5 10//5 7//5
o group_0_ID42
v 0.614300 0.196850 -1.628650
v 0.385700 0.196850 -1.882650
v 0.385700 0.196850 -1.628650
v 0.614300 0.196850 -1.882650
v 0.614300 0.196850 -1.831850
v 0.385700 0.177800 -1.628650
v 0.385700 0.177800 -1.882650
v 0.614300 0.177800 -1.628650
v 0.614300 0.177800 -1.831850
v 0.614300 0.177800 -1.882650
vn 0.0000 0.0000 -1.0000
vn 0.0000 0.0000 1.0000
vn 1.0000 0.0000 0.0000
vn -1.0000 0.0000 0.0000
vn 0.0000 1.0000 0.0000
usemtl Color_B23_
s off
f 12//6 14//6 20//6 17//6
f 14//7 11//7 15//7
f 19//8 15//8 11//8 18//8
f 12//9 17//9 16//9 13//9
f 11//7 13//7 16//7 18//7
f 20//8 14//8 15//8 19//8
f 11//10 14//10 12//10 13//10
o group_3.001_ID36
v 1.000000 0.368300 -1.726563
v 0.000000 0.368300 -1.784737
v 0.000000 0.368300 -1.726563
v 1.000000 0.368300 -1.784737
v 0.000000 0.359287 -1.717550
v 1.000000 0.359287 -1.717550
v 1.000000 0.359287 -1.793750
v 0.000000 0.359287 -1.793750
vn 0.0000 0.7071 -0.7071
vn 0.0000 0.7071 0.7071
vn 0.0000 1.0000 0.0000
usemtl Color_005_
s off
f 22//11 24//11 27//11 28//11
f 21//12 23//12 25//12 26//12
f 21//13 24//13 22//13 23//13
o group_3_ID30
v 1.000000 0.190500 -1.679450
v 0.000000 0.226302 -1.742950
v 0.000000 0.190500 -1.679450
v 1.000000 0.226302 -1.742950
v 0.000000 0.368300 -1.726563
v 0.000000 0.317500 -1.717550
v 0.000000 0.359287 -1.717550
v 0.000000 0.317500 -1.742950
v 0.000000 0.368300 -1.784737
v 0.000000 0.317500 -1.768350
v 0.000000 0.317500 -1.793750
v 0.000000 0.359287 -1.793750
v 0.000000 0.177800 -1.679450
v 0.000000 0.177800 -1.831850
v 0.000000 0.226302 -1.768350
v 0.000000 0.190500 -1.831850
v 1.000000 0.177800 -1.679450
v 1.000000 0.177800 -1.831850
v 1.000000 0.226302 -1.768350
v 1.000000 0.317500 -1.742950
v 1.000000 0.190500 -1.831850
v 1.000000 0.359287 -1.717550
v 1.000000 0.317500 -1.717550
v 1.000000 0.368300 -1.726563
v 1.000000 0.368300 -1.784737
v 1.000000 0.317500 -1.768350
v 1.000000 0.317500 -1.793750
v 1.000000 0.359287 -1.793750
vn 1.0000 0.0000 0.0000
vn 0.0000 0.0000 -1.0000
vn 0.0000 0.8711 -0.4911
vn -1.0000 0.0000 0.0000
vn 0.0000 0.0000 1.0000
vn 0.0000 -1.0000 0.0000
vn 0.0000 0.8711 0.4911
usemtl Color_B23_
s off
f 32//14 47//14 54//14 48//14
f 48//14 52//14 50//14 51//14
f 48//14 54//14 53//14 52//14
f 40//15 56//15 55//15 39//15
f 46//14 32//14 29//14 45//14
f 32//14 46//14 49//14 47//14
f 47//16 49//16 44//16 43//16
f 30//17 42//17 41//17 31//17
f 42//17 30//17 43//17 44//17
f 55//14 56//14 53//14 54//14
f 33//17 36//17 34//17 35//17
f 48//18 36//18 30//18 32//18
f 37//17 40//17 39//17 38//17
f 38//15 54//15 47//15 43//15
f 46//19 45//19 41//19 42//19
f 55//19 54//19 38//19 39//19
f 37//17 38//17 36//17 33//17
f 43//17 30//17 36//17 38//17
f 44//15 49//15 46//15 42//15
f 48//19 51//19 34//19 36//19
f 29//18 31//18 41//18 45//18
f 50//18 35//18 34//18 51//18
f 29//20 32//20 30//20 31//20
o group_2_ID21
v 0.309500 0.177800 -2.152400
v 0.690500 0.000000 -2.152400
v 0.309500 0.000000 -2.152400
v 0.690500 0.177800 -2.152400
v 0.309500 0.000000 0.152400
v 0.309500 0.177800 0.152400
v 0.690500 0.177800 0.152400
v 0.690500 0.000000 0.152400
vn 1.0000 0.0000 0.0000
vn -1.0000 0.0000 0.0000
vn 0.0000 0.0000 1.0000
vn 0.0000 1.0000 0.0000
vn 0.0000 -1.0000 0.0000
vn 0.0000 0.0000 -1.0000
usemtl Color_C24_
s off
f 58//21 60//21 63//21 64//21
f 57//22 59//22 61//22 62//22
f 63//23 62//23 61//23 64//23
f 63//24 60//24 57//24 62//24
f 58//25 64//25 61//25 59//25
f 57//26 60//26 58//26 59//26
o group_1.001_ID12
v 1.000000 0.368300 -0.215263
v 0.000000 0.368300 -0.273437
v 0.000000 0.368300 -0.215263
v 1.000000 0.368300 -0.273437
v 0.000000 0.359287 -0.206250
v 1.000000 0.359287 -0.206250
v 1.000000 0.359287 -0.282450
v 0.000000 0.359287 -0.282450
vn 0.0000 0.7071 -0.7071
vn 0.0000 0.7071 0.7071
vn 0.0000 1.0000 0.0000
usemtl Color_005_
s off
f 66//27 68//27 71//27 72//27
f 65//28 67//28 69//28 70//28
f 65//29 68//29 66//29 67//29
o group_1_ID4
v 1.000000 0.190500 -0.168150
v 0.000000 0.226302 -0.231650
v 0.000000 0.190500 -0.168150
v 1.000000 0.226302 -0.231650
v 0.000000 0.368300 -0.215263
v 0.000000 0.317500 -0.206250
v 0.000000 0.359287 -0.206250
v 0.000000 0.317500 -0.231650
v 0.000000 0.368300 -0.273437
v 0.000000 0.317500 -0.257050
v 0.000000 0.317500 -0.282450
v 0.000000 0.359287 -0.282450
v 0.000000 0.177800 -0.168150
v 0.000000 0.177800 -0.320550
v 0.000000 0.226302 -0.257050
v 0.000000 0.190500 -0.320550
v 1.000000 0.177800 -0.168150
v 1.000000 0.177800 -0.320550
v 1.000000 0.226302 -0.257050
v 1.000000 0.317500 -0.231650
v 1.000000 0.190500 -0.320550
v 1.000000 0.359287 -0.206250
v 1.000000 0.317500 -0.206250
v 1.000000 0.368300 -0.215263
v 1.000000 0.368300 -0.273437
v 1.000000 0.317500 -0.257050
v 1.000000 0.317500 -0.282450
v 1.000000 0.359287 -0.282450
vn 1.0000 0.0000 0.0000
vn 0.0000 0.0000 -1.0000
vn 0.0000 0.8711 -0.4911
vn -1.0000 0.0000 0.0000
vn 0.0000 0.0000 1.0000
vn 0.0000 -1.0000 0.0000
vn 0.0000 0.8711 0.4911
usemtl Color_B23_
s off
f 76//30 91//30 98//30 92//30
f 92//30 96//30 94//30 95//30
f 92//30 98//30 97//30 96//30
f 84//31 100//31 99//31 83//31
f 90//30 76//30 73//30 89//30
f 76//30 90//30 93//30 91//30
f 91//32 93//32 88//32 87//32
f 74//33 86//33 85//33 75//33
f 86//33 74//33 87//33 88//33
f 99//30 100//30 97//30 98//30
f 77//33 80//33 78//33 79//33
f 92//34 80//34 74//34 76//34
f 81//33 84//33 83//33 82//33
f 82//31 98//31 91//31 87//31
f 90//35 89//35 85//35 86//35
f 99//35 98//35 82//35 83//35
f 81//33 82//33 80//33 77//33
f 87//33 74//33 80//33 82//33
f 88//31 93//31 90//31 86//31
f 92//35 95//35 78//35 80//35
f 73//34 75//34 85//34 89//34
f 94//34 79//34 78//34 95//34
f 73//36 76//36 74//36 75//36
