# Blender v2.78 (sub 0) OBJ File: ''
# www.blender.org
mtllib track_1m.mtl
o RAIL_BASE.002_ID45
v 0.690500 0.000000 -2.152400
v 0.690500 0.177800 0.152400
v 0.690500 0.000000 0.152400
v 0.690500 0.177800 -2.152400
v 0.309500 0.000000 0.152400
v 0.309500 0.177800 0.152400
v 0.309500 0.000000 -2.152400
v 0.309500 0.177800 -2.152400
vn 0.0000 0.0000 -1.0000
vn 0.0000 0.0000 1.0000
vn -1.0000 0.0000 0.0000
vn 0.0000 -1.0000 0.0000
vn 0.0000 1.0000 0.0000
vn 1.0000 0.0000 0.0000
usemtl Color_C24_.001
s off
f 8//1 4//1 1//1 7//1
f 2//2 6//2 5//2 3//2
f 8//3 7//3 5//3 6//3
f 1//4 3//4 5//4 7//4
f 2//5 4//5 8//5 6//5
f 1//6 4//6 2//6 3//6
o RAIL_BASE.001_ID39
v 0.614300 0.196850 -1.628650
v 0.385700 0.196850 -1.882650
v 0.385700 0.196850 -1.628650
v 0.614300 0.196850 -1.882650
v 0.614300 0.196850 -1.831850
v 0.385700 0.177800 -1.628650
v 0.385700 0.177800 -1.882650
v 0.614300 0.177800 -1.628650
v 0.614300 0.177800 -1.831850
v 0.614300 0.177800 -1.882650
vn 0.0000 0.0000 -1.0000
vn 0.0000 -1.0000 0.0000
vn 1.0000 0.0000 0.0000
vn -1.0000 0.0000 0.0000
vn 0.0000 0.0000 1.0000
vn 0.0000 1.0000 0.0000
usemtl Color_B23_.001
s off
f 10//7 12//7 18//7 15//7
f 12//8 9//8 13//8
f 17//9 13//9 9//9 16//9
f 10//10 15//10 14//10 11//10
f 9//11 11//11 14//11 16//11
f 18//9 12//9 13//9 17//9
f 9//12 12//12 10//12 11//12
o RAIL_BASE_ID33
v 0.614300 0.177800 -0.371350
v 0.614300 0.196850 -0.117350
v 0.614300 0.177800 -0.117350
v 0.614300 0.196850 -0.371350
v 0.385700 0.196850 -0.371350
v 0.385700 0.177800 -0.371350
v 0.385700 0.196850 -0.168150
v 0.385700 0.196850 -0.117350
v 0.385700 0.177800 -0.117350
v 0.385700 0.177800 -0.168150
vn -1.0000 0.0000 0.0000
vn 0.0000 1.0000 0.0000
vn 0.0000 0.0000 -1.0000
vn 0.0000 0.0000 1.0000
vn 1.0000 0.0000 0.0000
usemtl Color_B23_.001
s off
f 23//13 24//13 28//13 25//13
f 20//14 22//14 23//14 25//14
f 20//14 25//14 26//14
f 23//15 22//15 19//15 24//15
f 25//13 28//13 27//13 26//13
f 20//16 26//16 27//16 21//16
f 19//17 22//17 20//17 21//17
o RAIL_LEFT.001_ID26.001
v 1.000000 0.368300 -0.215263
v 0.000000 0.368300 -0.273437
v 0.000000 0.368300 -0.215263
v 1.000000 0.368300 -0.273437
v 0.000000 0.359287 -0.206250
v 1.000000 0.359287 -0.206250
v 1.000000 0.359287 -0.282450
v 0.000000 0.359287 -0.282450
vn 0.0000 0.7071 -0.7071
vn 0.0000 0.7071 0.7071
vn 0.0000 1.0000 0.0000
usemtl Color_005_.001
s off
f 30//18 32//18 35//18 36//18
f 29//19 31//19 33//19 34//19
f 29//20 32//20 30//20 31//20
o RAIL_LEFT_ID20.001
v 1.000000 0.190500 -0.168150
v 0.000000 0.226302 -0.231650
v 0.000000 0.190500 -0.168150
v 1.000000 0.226302 -0.231650
v 0.000000 0.368300 -0.215263
v 0.000000 0.317500 -0.206250
v 0.000000 0.359287 -0.206250
v 0.000000 0.317500 -0.231650
v 0.000000 0.368300 -0.273437
v 0.000000 0.317500 -0.257050
v 0.000000 0.317500 -0.282450
v 0.000000 0.359287 -0.282450
v 0.000000 0.177800 -0.168150
v 0.000000 0.177800 -0.320550
v 0.000000 0.226302 -0.257050
v 0.000000 0.190500 -0.320550
v 1.000000 0.177800 -0.168150
v 1.000000 0.177800 -0.320550
v 1.000000 0.226302 -0.257050
v 1.000000 0.317500 -0.231650
v 1.000000 0.190500 -0.320550
v 1.000000 0.359287 -0.206250
v 1.000000 0.317500 -0.206250
v 1.000000 0.368300 -0.215263
v 1.000000 0.368300 -0.273437
v 1.000000 0.317500 -0.257050
v 1.000000 0.317500 -0.282450
v 1.000000 0.359287 -0.282450
vn 1.0000 0.0000 0.0000
vn 0.0000 0.0000 -1.0000
vn 0.0000 0.8711 -0.4911
vn -1.0000 0.0000 0.0000
vn 0.0000 0.0000 1.0000
vn 0.0000 -1.0000 0.0000
vn 0.0000 0.8711 0.4911
usemtl Color_B23_.001
s off
f 40//21 55//21 62//21 56//21
f 56//21 60//21 58//21 59//21
f 56//21 62//21 61//21 60//21
f 48//22 64//22 63//22 47//22
f 54//21 40//21 37//21 53//21
f 40//21 54//21 57//21 55//21
f 55//23 57//23 52//23 51//23
f 38//24 50//24 49//24 39//24
f 50//24 38//24 51//24 52//24
f 63//21 64//21 61//21 62//21
f 41//24 44//24 42//24 43//24
f 56//25 44//25 38//25 40//25
f 45//24 48//24 47//24 46//24
f 46//22 62//22 55//22 51//22
f 54//26 53//26 49//26 50//26
f 63//26 62//26 46//26 47//26
f 45//24 46//24 44//24 41//24
f 51//24 38//24 44//24 46//24
f 52//22 57//22 54//22 50//22
f 56//26 59//26 42//26 44//26
f 37//25 39//25 49//25 53//25
f 58//25 43//25 42//25 59//25
f 37//27 40//27 38//27 39//27
o RAIL_RIGHT.001_ID11.001
v 1.000000 0.368300 -1.726563
v 0.000000 0.368300 -1.784737
v 0.000000 0.368300 -1.726563
v 1.000000 0.368300 -1.784737
v 0.000000 0.359287 -1.717550
v 1.000000 0.359287 -1.717550
v 1.000000 0.359287 -1.793750
v 0.000000 0.359287 -1.793750
vn 0.0000 0.7071 -0.7071
vn 0.0000 0.7071 0.7071
vn 0.0000 1.0000 0.0000
usemtl Color_005_.001
s off
f 66//28 68//28 71//28 72//28
f 65//29 67//29 69//29 70//29
f 65//30 68//30 66//30 67//30
o RAIL_RIGHT_ID3.001
v 1.000000 0.190500 -1.679450
v 0.000000 0.226302 -1.742950
v 0.000000 0.190500 -1.679450
v 1.000000 0.226302 -1.742950
v 0.000000 0.368300 -1.726563
v 0.000000 0.317500 -1.717550
v 0.000000 0.359287 -1.717550
v 0.000000 0.317500 -1.742950
v 0.000000 0.368300 -1.784737
v 0.000000 0.317500 -1.768350
v 0.000000 0.317500 -1.793750
v 0.000000 0.359287 -1.793750
v 0.000000 0.177800 -1.679450
v 0.000000 0.177800 -1.831850
v 0.000000 0.226302 -1.768350
v 0.000000 0.190500 -1.831850
v 1.000000 0.177800 -1.679450
v 1.000000 0.177800 -1.831850
v 1.000000 0.226302 -1.768350
v 1.000000 0.317500 -1.742950
v 1.000000 0.190500 -1.831850
v 1.000000 0.359287 -1.717550
v 1.000000 0.317500 -1.717550
v 1.000000 0.368300 -1.726563
v 1.000000 0.368300 -1.784737
v 1.000000 0.317500 -1.768350
v 1.000000 0.317500 -1.793750
v 1.000000 0.359287 -1.793750
vn 1.0000 0.0000 0.0000
vn 0.0000 0.0000 -1.0000
vn 0.0000 0.8711 -0.4911
vn -1.0000 0.0000 0.0000
vn 0.0000 0.0000 1.0000
vn 0.0000 -1.0000 0.0000
vn 0.0000 0.8711 0.4911
usemtl Color_B23_.001
s off
f 76//31 91//31 98//31 92//31
f 92//31 96//31 94//31 95//31
f 92//31 98//31 97//31 96//31
f 84//32 100//32 99//32 83//32
f 90//31 76//31 73//31 89//31
f 76//31 90//31 93//31 91//31
f 91//33 93//33 88//33 87//33
f 74//34 86//34 85//34 75//34
f 86//34 74//34 87//34 88//34
f 99//31 100//31 97//31 98//31
f 77//34 80//34 78//34 79//34
f 92//35 80//35 74//35 76//35
f 81//34 84//34 83//34 82//34
f 82//32 98//32 91//32 87//32
f 90//36 89//36 85//36 86//36
f 99//36 98//36 82//36 83//36
f 81//34 82//34 80//34 77//34
f 87//34 74//34 80//34 82//34
f 88//32 93//32 90//32 86//32
f 92//36 95//36 78//36 80//36
f 73//35 75//35 85//35 89//35
f 94//35 79//35 78//35 95//35
f 73//37 76//37 74//37 75//37
