# Blender v2.79 (sub 0) OBJ File: ''
# www.blender.org
mtllib track_1m_model.mtl
o RAIL_BASE_Cube.002
v -0.167775 0.173793 1.152097
v -0.167775 0.000207 -1.152067
v -0.167775 0.000207 1.152097
v -0.167775 0.173793 -1.152067
v 0.167775 0.000207 -1.152067
v 0.167775 0.173793 -1.152067
v 0.167775 0.000207 1.152097
v 0.167775 0.173793 1.152097
v 0.115200 0.173424 -0.550808
v 0.115200 0.183424 -0.960982
v 0.115200 0.183424 -0.550808
v 0.115200 0.173424 -0.960982
v -0.115200 0.183424 -0.960982
v -0.115200 0.173424 -0.960982
v -0.115200 0.183424 -0.550808
v -0.115200 0.173424 -0.550808
v -0.115200 0.193424 -0.831354
v 0.115200 0.184862 -0.831354
v 0.115200 0.193424 -0.831354
v -0.115200 0.193424 -0.680436
v -0.115200 0.184862 -0.831354
v 0.115200 0.184862 -0.680436
v 0.115200 0.193424 -0.680436
v -0.115200 0.184862 -0.680436
v 0.067520 0.178361 -0.844717
v 0.067520 0.203321 -0.869677
v 0.067520 0.178361 -0.869677
v 0.092480 0.178361 -0.844717
v 0.067520 0.203321 -0.844717
v 0.092480 0.178361 -0.869677
v 0.092480 0.203321 -0.844717
v 0.092480 0.203321 -0.869677
v -0.092480 0.168361 -0.917864
v -0.092480 0.193321 -0.942824
v -0.092480 0.168361 -0.942824
v -0.067520 0.168361 -0.917864
v -0.092480 0.193321 -0.917864
v -0.067520 0.168361 -0.942824
v -0.067520 0.193321 -0.917864
v -0.067520 0.193321 -0.942824
v 0.067520 0.203321 -0.642273
v 0.067520 0.178361 -0.667233
v 0.067520 0.178361 -0.642273
v 0.067520 0.203321 -0.667233
v 0.092480 0.178361 -0.667233
v 0.092480 0.203321 -0.667233
v 0.092480 0.178361 -0.642273
v 0.092480 0.203321 -0.642273
v -0.092480 0.193321 -0.568446
v -0.092480 0.168361 -0.593406
v -0.092480 0.168361 -0.568446
v -0.092480 0.193321 -0.593406
v -0.067520 0.168361 -0.593406
v -0.067520 0.193321 -0.593406
v -0.067520 0.168361 -0.568446
v -0.067520 0.193321 -0.568446
v 0.115200 0.183424 0.961012
v 0.115200 0.173424 0.550838
v 0.115200 0.183424 0.550838
v -0.115200 0.183424 0.961012
v 0.115200 0.173424 0.961012
v -0.115200 0.183424 0.550838
v -0.115200 0.173424 0.961012
v -0.115200 0.173424 0.550838
v 0.115200 0.184862 0.831384
v -0.115200 0.193424 0.831384
v 0.115200 0.193424 0.831384
v -0.115200 0.193424 0.680466
v 0.115200 0.184862 0.680466
v -0.115200 0.184862 0.831384
v -0.115200 0.184862 0.680466
v 0.115200 0.193424 0.680466
v 0.067520 0.203321 0.869707
v 0.067520 0.178361 0.844747
v 0.067520 0.178361 0.869707
v 0.067520 0.203321 0.844747
v 0.092480 0.178361 0.844747
v 0.092480 0.203321 0.844747
v 0.092480 0.178361 0.869707
v 0.092480 0.203321 0.869707
v -0.092480 0.193321 0.942854
v -0.092480 0.168361 0.917894
v -0.092480 0.168361 0.942854
v -0.092480 0.193321 0.917894
v -0.067520 0.168361 0.917894
v -0.067520 0.193321 0.917894
v -0.067520 0.168361 0.942854
v -0.067520 0.193321 0.942854
v 0.067520 0.178361 0.667263
v 0.067520 0.203321 0.642303
v 0.067520 0.178361 0.642303
v 0.092480 0.178361 0.667263
v 0.067520 0.203321 0.667263
v 0.092480 0.178361 0.642303
v 0.092480 0.203321 0.667263
v 0.092480 0.203321 0.642303
v -0.092480 0.168361 0.593436
v -0.092480 0.193321 0.568476
v -0.092480 0.168361 0.568476
v -0.067520 0.168361 0.593436
v -0.092480 0.193321 0.593436
v -0.067520 0.168361 0.568476
v -0.067520 0.193321 0.593436
v -0.067520 0.193321 0.568476
vt 0.125000 0.984375
vt 0.234375 0.015625
vt 0.234375 0.984375
vt 0.125000 0.015625
vt 0.015625 0.218750
vt 0.015625 0.015625
vt 0.234375 0.015625
vt 0.125000 0.984375
vt 0.125000 0.015625
vt 0.234375 0.015625
vt 0.125000 0.218750
vt 0.125000 0.015625
vt 0.234375 0.015625
vt 0.031250 0.984375
vt 0.031250 0.015625
vt 0.234375 0.015625
vt 0.031250 0.984375
vt 0.031250 0.015625
vt 0.625000 0.609375
vt 0.625000 0.859375
vt 0.625000 0.609375
vt 0.406250 0.750000
vt 0.406250 0.906250
vt 0.406250 0.750000
vt 0.640625 0.609375
vt 0.640625 0.859375
vt 0.640625 0.609375
vt 0.421875 0.906250
vt 0.421875 0.750000
vt 0.421875 0.906250
vt 0.640625 0.750000
vt 0.640625 0.609375
vt 0.640625 0.609375
vt 0.687500 0.140625
vt 0.531250 0.031250
vt 0.531250 0.140625
vt 0.687500 0.031250
vt 0.531250 0.140625
vt 0.531250 0.031250
vt 0.515625 0.750000
vt 0.421875 0.609375
vt 0.515625 0.609375
vt 0.640625 0.750000
vt 0.640625 0.906250
vt 0.640625 0.906250
vt 0.609375 0.781250
vt 0.609375 0.687500
vt 0.640625 0.687500
vt 0.640625 0.890625
vt 0.609375 0.859375
vt 0.640625 0.859375
vt 0.390625 0.921875
vt 0.421875 0.906250
vt 0.421875 0.921875
vt 0.609375 0.906250
vt 0.593750 0.890625
vt 0.609375 0.890625
vt 0.453125 0.921875
vt 0.468750 0.906250
vt 0.468750 0.921875
vt 0.609375 0.890625
vt 0.593750 0.859375
vt 0.609375 0.859375
vt 0.515625 0.921875
vt 0.515625 0.921875
vt 0.515625 0.921875
vt 0.359375 0.921875
vt 0.375000 0.906250
vt 0.375000 0.921875
vt 0.375000 0.921875
vt 0.359375 0.921875
vt 0.375000 0.921875
vt 0.453125 0.921875
vt 0.453125 0.906250
vt 0.453125 0.921875
vt 0.390625 0.921875
vt 0.375000 0.921875
vt 0.390625 0.921875
vt 0.453125 0.921875
vt 0.468750 0.921875
vt 0.468750 0.921875
vt 0.484375 0.906250
vt 0.515625 0.921875
vt 0.484375 0.921875
vt 0.468750 0.921875
vt 0.484375 0.921875
vt 0.484375 0.921875
vt 0.515625 0.906250
vt 0.531250 0.921875
vt 0.515625 0.921875
vt 0.406250 0.921875
vt 0.437500 0.921875
vt 0.437500 0.921875
vt 0.609375 0.921875
vt 0.640625 0.906250
vt 0.640625 0.921875
vt 0.343750 0.906250
vt 0.359375 0.921875
vt 0.343750 0.921875
vt 0.609375 0.906250
vt 0.640625 0.890625
vt 0.640625 0.906250
vt 0.437500 0.906250
vt 0.453125 0.921875
vt 0.437500 0.921875
vt 0.609375 0.921875
vt 0.640625 0.921875
vt 0.640625 0.921875
vt 0.625000 0.859375
vt 0.625000 0.609375
vt 0.625000 0.609375
vt 0.406250 0.906250
vt 0.406250 0.750000
vt 0.406250 0.750000
vt 0.640625 0.859375
vt 0.640625 0.609375
vt 0.640625 0.609375
vt 0.421875 0.750000
vt 0.421875 0.906250
vt 0.421875 0.906250
vt 0.640625 0.609375
vt 0.640625 0.750000
vt 0.640625 0.609375
vt 0.531250 0.031250
vt 0.687500 0.140625
vt 0.531250 0.140625
vt 0.531250 0.140625
vt 0.687500 0.031250
vt 0.531250 0.031250
vt 0.421875 0.609375
vt 0.515625 0.750000
vt 0.515625 0.609375
vt 0.640625 0.906250
vt 0.640625 0.750000
vt 0.640625 0.906250
vt 0.609375 0.781250
vt 0.640625 0.687500
vt 0.640625 0.781250
vt 0.609375 0.859375
vt 0.640625 0.890625
vt 0.640625 0.859375
vt 0.421875 0.906250
vt 0.390625 0.921875
vt 0.421875 0.921875
vt 0.593750 0.890625
vt 0.609375 0.906250
vt 0.609375 0.890625
vt 0.468750 0.906250
vt 0.453125 0.921875
vt 0.468750 0.921875
vt 0.593750 0.859375
vt 0.609375 0.890625
vt 0.609375 0.859375
vt 0.515625 0.921875
vt 0.515625 0.921875
vt 0.515625 0.921875
vt 0.375000 0.906250
vt 0.359375 0.921875
vt 0.375000 0.921875
vt 0.359375 0.921875
vt 0.375000 0.921875
vt 0.375000 0.921875
vt 0.453125 0.906250
vt 0.453125 0.921875
vt 0.453125 0.921875
vt 0.375000 0.921875
vt 0.390625 0.921875
vt 0.390625 0.921875
vt 0.468750 0.921875
vt 0.453125 0.921875
vt 0.468750 0.921875
vt 0.515625 0.921875
vt 0.484375 0.906250
vt 0.484375 0.921875
vt 0.484375 0.921875
vt 0.468750 0.921875
vt 0.484375 0.921875
vt 0.531250 0.921875
vt 0.515625 0.906250
vt 0.515625 0.921875
vt 0.437500 0.921875
vt 0.406250 0.921875
vt 0.437500 0.921875
vt 0.640625 0.906250
vt 0.609375 0.921875
vt 0.640625 0.921875
vt 0.359375 0.921875
vt 0.343750 0.906250
vt 0.343750 0.921875
vt 0.640625 0.890625
vt 0.609375 0.906250
vt 0.640625 0.906250
vt 0.453125 0.921875
vt 0.437500 0.906250
vt 0.437500 0.921875
vt 0.640625 0.921875
vt 0.609375 0.921875
vt 0.640625 0.921875
vt 0.125000 0.218750
vt 0.234375 0.984375
vt 0.234375 0.218750
vt 0.234375 0.984375
vt 0.234375 0.984375
vt 0.625000 0.859375
vt 0.406250 0.906250
vt 0.640625 0.859375
vt 0.421875 0.750000
vt 0.640625 0.750000
vt 0.687500 0.031250
vt 0.687500 0.140625
vt 0.421875 0.750000
vt 0.640625 0.750000
vt 0.609375 0.781250
vt 0.609375 0.687500
vt 0.640625 0.781250
vt 0.640625 0.781250
vt 0.640625 0.687500
vt 0.609375 0.890625
vt 0.390625 0.906250
vt 0.593750 0.906250
vt 0.453125 0.906250
vt 0.593750 0.890625
vt 0.515625 0.921875
vt 0.359375 0.906250
vt 0.359375 0.921875
vt 0.453125 0.906250
vt 0.375000 0.921875
vt 0.453125 0.921875
vt 0.515625 0.906250
vt 0.468750 0.921875
vt 0.531250 0.906250
vt 0.406250 0.921875
vt 0.609375 0.906250
vt 0.359375 0.906250
vt 0.609375 0.890625
vt 0.453125 0.906250
vt 0.625000 0.859375
vt 0.406250 0.906250
vt 0.640625 0.859375
vt 0.421875 0.750000
vt 0.640625 0.750000
vt 0.687500 0.031250
vt 0.687500 0.140625
vt 0.421875 0.750000
vt 0.640625 0.750000
vt 0.609375 0.687500
vt 0.609375 0.687500
vt 0.609375 0.781250
vt 0.640625 0.687500
vt 0.640625 0.781250
vt 0.609375 0.890625
vt 0.390625 0.906250
vt 0.593750 0.906250
vt 0.453125 0.906250
vt 0.593750 0.890625
vt 0.515625 0.921875
vt 0.359375 0.906250
vt 0.359375 0.921875
vt 0.453125 0.906250
vt 0.375000 0.921875
vt 0.453125 0.921875
vt 0.515625 0.906250
vt 0.468750 0.921875
vt 0.531250 0.906250
vt 0.406250 0.921875
vt 0.609375 0.906250
vt 0.359375 0.906250
vt 0.609375 0.890625
vt 0.453125 0.906250
vn -1.0000 0.0000 0.0000
vn 0.0000 0.0000 -1.0000
vn 1.0000 0.0000 0.0000
vn 0.0000 0.0000 1.0000
vn 0.0000 -1.0000 -0.0000
vn 0.0000 1.0000 0.0000
vn 0.0000 0.9970 0.0769
vn 0.0000 0.9970 -0.0769
usemtl Prototype_Texture
s 1
f 1/1/1 2/2/1 3/3/1
f 4/4/2 5/5/2 2/6/2
f 6/7/3 7/8/3 5/9/3
f 8/10/4 3/11/4 7/12/4
f 5/13/5 3/14/5 2/15/5
f 4/16/6 8/17/6 6/18/6
f 9/19/3 10/20/3 11/21/3
f 12/22/2 13/23/2 10/24/2
f 14/25/1 15/26/1 13/27/1
f 16/28/4 11/29/4 15/30/4
f 17/31/4 18/32/4 19/33/4
f 11/34/7 20/35/7 15/36/7
f 13/37/8 19/38/8 10/39/8
f 21/40/6 22/41/6 18/42/6
f 23/43/2 24/44/2 20/45/2
f 18/46/3 22/47/3 11/21/3
f 13/27/1 15/26/1 21/48/1
f 25/49/1 26/50/1 27/51/1
f 28/52/4 29/53/4 25/54/4
f 30/55/3 31/56/3 28/57/3
f 27/58/2 32/59/2 30/60/2
f 32/61/6 29/62/6 31/63/6
f 33/64/1 34/65/1 35/66/1
f 36/67/4 37/68/4 33/69/4
f 38/70/3 39/71/3 36/72/3
f 35/73/2 40/74/2 38/75/2
f 40/76/6 37/77/6 39/78/6
f 41/79/1 42/80/1 43/81/1
f 44/82/2 45/83/2 42/84/2
f 46/85/3 47/86/3 45/87/3
f 48/88/4 43/89/4 47/90/4
f 44/91/6 48/92/6 46/93/6
f 49/94/1 50/95/1 51/96/1
f 52/97/2 53/98/2 50/99/2
f 54/100/3 55/101/3 53/102/3
f 56/103/4 51/104/4 55/105/4
f 52/106/6 56/107/6 54/108/6
f 57/109/3 58/110/3 59/111/3
f 60/112/4 61/113/4 57/114/4
f 62/115/1 63/116/1 60/117/1
f 59/118/2 64/119/2 62/120/2
f 65/121/2 66/122/2 67/123/2
f 68/124/8 59/125/8 62/126/8
f 67/127/7 60/128/7 57/129/7
f 69/130/6 70/131/6 65/132/6
f 71/133/4 72/134/4 68/135/4
f 59/111/3 65/136/3 57/109/3
f 70/137/1 71/138/1 62/115/1
f 73/139/1 74/140/1 75/141/1
f 76/142/2 77/143/2 74/144/2
f 78/145/3 79/146/3 77/147/3
f 80/148/4 75/149/4 79/150/4
f 76/151/6 80/152/6 78/153/6
f 81/154/1 82/155/1 83/156/1
f 84/157/2 85/158/2 82/159/2
f 86/160/3 87/161/3 85/162/3
f 88/163/4 83/164/4 87/165/4
f 84/166/6 88/167/6 86/168/6
f 89/169/1 90/170/1 91/171/1
f 92/172/4 93/173/4 89/174/4
f 94/175/3 95/176/3 92/177/3
f 91/178/2 96/179/2 94/180/2
f 96/181/6 93/182/6 95/183/6
f 97/184/1 98/185/1 99/186/1
f 100/187/4 101/188/4 97/189/4
f 102/190/3 103/191/3 100/192/3
f 99/193/2 104/194/2 102/195/2
f 104/196/6 101/197/6 103/198/6
f 1/1/1 4/4/1 2/2/1
f 4/4/2 6/199/2 5/5/2
f 6/7/3 8/200/3 7/8/3
f 8/10/4 1/201/4 3/11/4
f 5/13/5 7/202/5 3/14/5
f 4/16/6 1/203/6 8/17/6
f 9/19/3 12/204/3 10/20/3
f 12/22/2 14/205/2 13/23/2
f 14/25/1 16/206/1 15/26/1
f 16/28/4 9/207/4 11/29/4
f 17/31/4 21/208/4 18/32/4
f 11/34/7 23/209/7 20/35/7
f 13/37/8 17/210/8 19/38/8
f 21/40/6 24/211/6 22/41/6
f 23/43/2 22/212/2 24/44/2
f 10/20/3 19/213/3 18/46/3
f 22/47/3 23/214/3 11/21/3
f 10/20/3 18/46/3 11/21/3
f 15/26/1 20/215/1 24/216/1
f 21/48/1 17/217/1 13/27/1
f 15/26/1 24/216/1 21/48/1
f 25/49/1 29/218/1 26/50/1
f 28/52/4 31/219/4 29/53/4
f 30/55/3 32/220/3 31/56/3
f 27/58/2 26/221/2 32/59/2
f 32/61/6 26/222/6 29/62/6
f 33/64/1 37/223/1 34/65/1
f 36/67/4 39/224/4 37/68/4
f 38/70/3 40/225/3 39/71/3
f 35/73/2 34/226/2 40/74/2
f 40/76/6 34/227/6 37/77/6
f 41/79/1 44/228/1 42/80/1
f 44/82/2 46/229/2 45/83/2
f 46/85/3 48/230/3 47/86/3
f 48/88/4 41/231/4 43/89/4
f 44/91/6 41/232/6 48/92/6
f 49/94/1 52/233/1 50/95/1
f 52/97/2 54/234/2 53/98/2
f 54/100/3 56/235/3 55/101/3
f 56/103/4 49/236/4 51/104/4
f 52/106/6 49/94/6 56/107/6
f 57/109/3 61/237/3 58/110/3
f 60/112/4 63/238/4 61/113/4
f 62/115/1 64/239/1 63/116/1
f 59/118/2 58/240/2 64/119/2
f 65/121/2 70/241/2 66/122/2
f 68/124/8 72/242/8 59/125/8
f 67/127/7 66/243/7 60/128/7
f 69/130/6 71/244/6 70/131/6
f 71/133/4 69/245/4 72/134/4
f 59/111/3 72/246/3 69/247/3
f 65/136/3 67/248/3 57/109/3
f 59/111/3 69/247/3 65/136/3
f 60/117/1 66/249/1 70/137/1
f 71/138/1 68/250/1 62/115/1
f 60/117/1 70/137/1 62/115/1
f 73/139/1 76/251/1 74/140/1
f 76/142/2 78/252/2 77/143/2
f 78/145/3 80/253/3 79/146/3
f 80/148/4 73/254/4 75/149/4
f 76/151/6 73/255/6 80/152/6
f 81/154/1 84/256/1 82/155/1
f 84/157/2 86/257/2 85/158/2
f 86/160/3 88/258/3 87/161/3
f 88/163/4 81/259/4 83/164/4
f 84/166/6 81/260/6 88/167/6
f 89/169/1 93/261/1 90/170/1
f 92/172/4 95/262/4 93/173/4
f 94/175/3 96/263/3 95/176/3
f 91/178/2 90/264/2 96/179/2
f 96/181/6 90/265/6 93/182/6
f 97/184/1 101/266/1 98/185/1
f 100/187/4 103/267/4 101/188/4
f 102/190/3 104/268/3 103/191/3
f 99/193/2 98/269/2 104/194/2
f 104/196/6 98/185/6 101/197/6
o RAIL_RIGHT_Cube.005
v 0.500000 0.317500 -0.742919
v -0.500000 0.226302 -0.742919
v 0.500000 0.226302 -0.742919
v -0.500000 0.368300 -0.784706
v -0.500000 0.359287 -0.793719
v -0.500000 0.317500 -0.768319
v 0.500000 0.190500 -0.831819
v -0.500000 0.226302 -0.768319
v 0.500000 0.226302 -0.768319
v -0.500000 0.190500 -0.831819
v 0.500000 0.177800 -0.831819
v -0.500000 0.177800 -0.831819
v 0.500000 0.317500 -0.717519
v -0.500000 0.317500 -0.742919
v -0.500000 0.190500 -0.679419
v 0.500000 0.190500 -0.679419
v 0.500000 0.359287 -0.717519
v -0.500000 0.317500 -0.717519
v 0.500000 0.317500 -0.793719
v -0.500000 0.317500 -0.793719
v 0.500000 0.317500 -0.768319
v 0.500000 0.368300 -0.784706
v -0.500000 0.177800 -0.679419
v 0.500000 0.359287 -0.793719
v 0.500000 0.177800 -0.679419
v -0.500000 0.359287 -0.717519
v -0.500000 0.368300 -0.726532
v 0.500000 0.368300 -0.726532
vt 0.485578 0.173980
vt 0.450642 0.953980
vt 0.450642 0.173980
vt 0.419287 0.673926
vt 0.428750 0.683388
vt 0.402083 0.727259
vt 0.618736 0.173980
vt 0.589307 0.953980
vt 0.589306 0.173980
vt 0.684275 0.173980
vt 0.674369 0.953980
vt 0.674369 0.173980
vt 0.638549 0.953980
vt 0.658360 0.173980
vt 0.658361 0.953980
vt 0.485578 0.953980
vt 0.556712 0.173980
vt 0.556712 0.953980
vt 0.393782 0.953980
vt 0.393782 0.173980
vt 0.674368 0.173980
vt 0.658361 0.953980
vt 0.658361 0.173980
vt 0.638548 0.953980
vt 0.618736 0.173980
vt 0.638548 0.173980
vt 0.535417 0.727259
vt 0.518213 0.673926
vt 0.562083 0.727259
vt 0.388916 0.953980
vt 0.270044 0.173980
vt 0.388916 0.173980
vt 0.556712 0.173980
vt 0.589306 0.953980
vt 0.556713 0.953980
vt 0.388916 0.173980
vt 0.485578 0.953980
vt 0.308750 0.873926
vt 0.308750 0.860593
vt 0.375417 0.823005
vt 0.375417 0.727259
vt 0.348750 0.727259
vt 0.348750 0.683389
vt 0.468750 0.873926
vt 0.358212 0.673926
vt 0.468750 0.860593
vt 0.402083 0.823005
vt 0.428750 0.727259
vt 0.618736 0.953980
vt 0.684275 0.953980
vt 0.638548 0.173980
vt 0.485578 0.173980
vt 0.674369 0.953980
vt 0.618736 0.953980
vt 0.628750 0.873926
vt 0.468750 0.873926
vt 0.535417 0.823005
vt 0.468750 0.860593
vt 0.562083 0.823005
vt 0.628750 0.860593
vt 0.588750 0.683388
vt 0.588750 0.727259
vt 0.579288 0.673926
vt 0.508750 0.727259
vt 0.508750 0.683389
vt 0.270045 0.953980
vt 0.589306 0.173980
vt 0.388917 0.953980
vn 0.0000 0.0000 1.0000
vn -1.0000 0.0000 0.0000
vn 0.0000 0.8711 -0.4911
vn 0.0000 0.0000 -1.0000
vn 0.0000 -1.0000 0.0000
vn 0.0000 0.8711 0.4911
vn 1.0000 0.0000 0.0000
usemtl Prototype_Texture
s 1
f 105/270/9 106/271/9 107/272/9
f 108/273/10 109/274/10 110/275/10
f 111/276/11 112/277/11 113/278/11
f 114/279/12 115/280/12 116/281/12
f 117/282/13 118/283/13 105/284/13
f 110/285/12 113/286/12 112/287/12
f 107/272/14 119/288/14 120/289/14
f 121/290/9 122/291/9 117/292/9
f 123/293/13 110/294/13 124/295/13
f 125/296/15 126/297/15 105/298/15
f 115/299/13 127/300/13 116/301/13
f 128/302/12 124/303/12 109/304/12
f 119/288/9 129/305/9 120/289/9
f 105/270/9 118/306/9 106/271/9
f 127/307/10 119/308/10 106/309/10
f 118/310/10 122/311/10 130/312/10
f 116/313/10 127/307/10 106/309/10
f 118/310/10 130/312/10 131/314/10
f 114/315/10 116/313/10 112/316/10
f 116/313/10 106/309/10 112/316/10
f 118/310/10 131/314/10 108/273/10
f 112/316/10 106/309/10 118/310/10
f 109/274/10 124/317/10 110/275/10
f 110/275/10 112/316/10 118/310/10
f 118/310/10 108/273/10 110/275/10
f 111/276/11 114/318/11 112/277/11
f 114/279/12 111/319/12 115/280/12
f 117/282/13 122/320/13 118/283/13
f 110/285/12 125/321/12 113/286/12
f 107/272/14 106/271/14 119/288/14
f 121/290/9 130/322/9 122/291/9
f 123/293/13 125/323/13 110/294/13
f 129/324/15 115/325/15 113/326/15
f 115/325/15 111/327/15 113/326/15
f 107/328/15 120/329/15 129/324/15
f 121/330/15 117/331/15 105/298/15
f 107/328/15 129/324/15 113/326/15
f 132/332/15 121/330/15 105/298/15
f 105/298/15 107/328/15 113/326/15
f 125/296/15 123/333/15 128/334/15
f 105/298/15 113/326/15 125/296/15
f 126/297/15 132/332/15 105/298/15
f 125/296/15 128/334/15 126/297/15
f 115/299/13 129/335/13 127/300/13
f 128/302/12 123/336/12 124/303/12
f 119/288/9 127/337/9 129/305/9
o RAIL_RIGHT.001_Cube.007
v -0.500000 0.368300 -0.726532
v 0.500000 0.359287 -0.717519
v 0.500000 0.368300 -0.726532
v 0.500000 0.368300 -0.784706
v -0.500000 0.368300 -0.784706
v 0.500000 0.359287 -0.793719
v -0.500000 0.359287 -0.793719
v -0.500000 0.359287 -0.717519
vt 0.937500 0.015625
vt 0.984375 0.984375
vt 0.937500 0.984375
vt 0.765625 0.984375
vt 0.765625 0.015625
vt 0.718750 0.984375
vt 0.718750 0.015625
vt 0.984375 0.015625
vn 0.0000 0.7071 0.7071
vn 0.0000 1.0000 0.0000
vn 0.0000 0.7071 -0.7071
usemtl Prototype_Texture
s 1
f 133/338/16 134/339/16 135/340/16
f 136/341/17 133/338/17 135/340/17
f 137/342/18 138/343/18 139/344/18
f 133/338/16 140/345/16 134/339/16
f 136/341/17 137/342/17 133/338/17
f 137/342/18 136/341/18 138/343/18
o RAIL_LEFT_Cube.001
v 0.500000 0.317500 0.742949
v 0.500000 0.226302 0.742949
v -0.500000 0.226302 0.742949
v -0.500000 0.368300 0.784736
v -0.500000 0.317500 0.768349
v -0.500000 0.359287 0.793749
v 0.500000 0.190500 0.831849
v 0.500000 0.226302 0.768349
v -0.500000 0.226302 0.768349
v -0.500000 0.190500 0.831849
v -0.500000 0.177800 0.831849
v 0.500000 0.177800 0.831849
v 0.500000 0.317500 0.717549
v -0.500000 0.317500 0.742949
v 0.500000 0.190500 0.679449
v -0.500000 0.190500 0.679449
v 0.500000 0.359287 0.717549
v -0.500000 0.317500 0.717549
v 0.500000 0.317500 0.793749
v -0.500000 0.317500 0.793749
v 0.500000 0.317500 0.768349
v 0.500000 0.368300 0.784736
v -0.500000 0.177800 0.679449
v 0.500000 0.359287 0.793749
v 0.500000 0.177800 0.679449
v -0.500000 0.359287 0.717549
v -0.500000 0.368300 0.726562
v 0.500000 0.368300 0.726562
vt 0.485578 0.173980
vt 0.450642 0.173980
vt 0.450642 0.953980
vt 0.419287 0.673926
vt 0.402083 0.727259
vt 0.428750 0.683388
vt 0.618736 0.173980
vt 0.589306 0.173980
vt 0.589307 0.953980
vt 0.684275 0.173980
vt 0.674369 0.173980
vt 0.674369 0.953980
vt 0.638549 0.953980
vt 0.658361 0.953980
vt 0.658360 0.173980
vt 0.485578 0.953980
vt 0.556712 0.953980
vt 0.556712 0.173980
vt 0.393782 0.173980
vt 0.393782 0.953980
vt 0.674368 0.173980
vt 0.658361 0.173980
vt 0.658361 0.953980
vt 0.638548 0.953980
vt 0.638548 0.173980
vt 0.618736 0.173980
vt 0.535417 0.727259
vt 0.562083 0.727259
vt 0.518213 0.673926
vt 0.388916 0.953980
vt 0.388916 0.173980
vt 0.270044 0.173980
vt 0.556712 0.173980
vt 0.556713 0.953980
vt 0.589306 0.953980
vt 0.388916 0.173980
vt 0.485578 0.953980
vt 0.308750 0.873926
vt 0.375417 0.823005
vt 0.308750 0.860593
vt 0.375417 0.727259
vt 0.348750 0.683389
vt 0.348750 0.727259
vt 0.468750 0.873926
vt 0.358212 0.673926
vt 0.468750 0.860593
vt 0.402083 0.823005
vt 0.428750 0.727259
vt 0.618736 0.953980
vt 0.684275 0.953980
vt 0.638548 0.173980
vt 0.485578 0.173980
vt 0.674369 0.953980
vt 0.618736 0.953980
vt 0.628750 0.873926
vt 0.535417 0.823005
vt 0.468750 0.873926
vt 0.468750 0.860593
vt 0.562083 0.823005
vt 0.628750 0.860593
vt 0.588750 0.683388
vt 0.588750 0.727259
vt 0.579288 0.673926
vt 0.508750 0.683389
vt 0.508750 0.727259
vt 0.270045 0.953980
vt 0.589306 0.173980
vt 0.388917 0.953980
vn 0.0000 0.0000 -1.0000
vn -1.0000 0.0000 0.0000
vn 0.0000 0.8711 0.4911
vn 0.0000 0.0000 1.0000
vn 0.0000 -1.0000 0.0000
vn 0.0000 0.8711 -0.4911
vn 1.0000 0.0000 0.0000
usemtl Prototype_Texture
s 1
f 141/346/19 142/347/19 143/348/19
f 144/349/20 145/350/20 146/351/20
f 147/352/21 148/353/21 149/354/21
f 150/355/22 151/356/22 152/357/22
f 153/358/23 141/359/23 154/360/23
f 145/361/22 149/362/22 148/363/22
f 142/347/24 155/364/24 156/365/24
f 157/366/19 153/367/19 158/368/19
f 159/369/23 160/370/23 145/371/23
f 161/372/25 141/373/25 162/374/25
f 152/375/23 151/376/23 163/377/23
f 164/378/22 146/379/22 160/380/22
f 156/365/19 155/364/19 165/381/19
f 141/346/19 143/348/19 154/382/19
f 163/383/20 143/384/20 156/385/20
f 154/386/20 166/387/20 158/388/20
f 151/389/20 143/384/20 163/383/20
f 154/386/20 167/390/20 166/387/20
f 150/391/20 149/392/20 151/389/20
f 151/389/20 149/392/20 143/384/20
f 154/386/20 144/349/20 167/390/20
f 149/392/20 154/386/20 143/384/20
f 146/351/20 145/350/20 160/393/20
f 145/350/20 154/386/20 149/392/20
f 154/386/20 145/350/20 144/349/20
f 147/352/21 149/354/21 150/394/21
f 150/355/22 152/357/22 147/395/22
f 153/358/23 154/360/23 158/396/23
f 145/361/22 148/363/22 161/397/22
f 142/347/24 156/365/24 143/348/24
f 157/366/19 158/368/19 166/398/19
f 159/369/23 145/371/23 161/399/23
f 165/400/25 148/401/25 152/402/25
f 152/402/25 148/401/25 147/403/25
f 142/404/25 165/400/25 155/405/25
f 157/406/25 141/373/25 153/407/25
f 142/404/25 148/401/25 165/400/25
f 168/408/25 141/373/25 157/406/25
f 141/373/25 148/401/25 142/404/25
f 161/372/25 164/409/25 159/410/25
f 141/373/25 161/372/25 148/401/25
f 162/374/25 141/373/25 168/408/25
f 161/372/25 162/374/25 164/409/25
f 152/375/23 163/377/23 165/411/23
f 164/378/22 160/380/22 159/412/22
f 156/365/19 165/381/19 163/413/19
o RAIL_LEFT.001_Cube.008
v -0.500000 0.368300 0.726562
v 0.500000 0.368300 0.726562
v 0.500000 0.359287 0.717549
v 0.500000 0.368300 0.784736
v -0.500000 0.368300 0.784736
v -0.500000 0.359287 0.793749
v 0.500000 0.359287 0.793749
v -0.500000 0.359287 0.717549
vt 0.937500 0.015625
vt 0.937500 0.984375
vt 0.984375 0.984375
vt 0.765625 0.984375
vt 0.765625 0.015625
vt 0.718750 0.015625
vt 0.718750 0.984375
vt 0.984375 0.015625
vn 0.0000 0.7071 -0.7071
vn 0.0000 1.0000 0.0000
vn 0.0000 0.7071 0.7071
usemtl Prototype_Texture
s 1
f 169/414/26 170/415/26 171/416/26
f 172/417/27 170/415/27 169/414/27
f 173/418/28 174/419/28 175/420/28
f 169/414/26 171/416/26 176/421/26
f 172/417/27 169/414/27 173/418/27
f 173/418/28 175/420/28 172/417/28
