# Blender v2.79 (sub 0) OBJ File: ''
# www.blender.org
mtllib casting_machine.mtl
o SketchUp_ID81.002
v 2.500000 8.000000 0.246320
v 2.246320 8.000000 0.753679
v 2.246320 8.000000 0.246320
v 2.500000 8.000000 0.753679
v 2.753679 8.000000 0.246320
v 2.753679 8.000000 0.753679
v 2.500000 8.009998 0.246320
v 2.753679 8.009998 0.246320
v 2.753679 8.009998 0.753679
v 2.500000 8.009998 0.753679
v 2.246320 8.009998 0.753679
v 2.246320 8.009998 0.246320
vn 0.0000 0.0000 -1.0000
vn 0.0000 -1.0000 0.0000
vn 0.0000 0.0000 1.0000
vn 0.0000 1.0000 0.0000
vn -1.0000 0.0000 0.0000
vn 1.0000 0.0000 0.0000
usemtl Color_D06_.002
s off
f 12//1 7//1 1//1 3//1
f 1//2 4//2 2//2 3//2
f 9//3 10//3 4//3 6//3
f 10//4 7//4 12//4 11//4
f 12//5 3//5 2//5 11//5
f 10//3 11//3 2//3 4//3
f 5//6 8//6 9//6 6//6
f 10//4 9//4 8//4 7//4
f 7//1 8//1 5//1 1//1
f 5//2 6//2 4//2 1//2
o FLOWING_STEEL_ID75.002
v 2.250000 3.529999 -6.999999
v 2.250000 3.339999 -5.999999
v 2.250000 3.659999 -5.999999
v 2.250000 3.339999 -6.999999
v 2.250000 3.420000 -7.219999
v 2.250000 3.339999 -7.269999
v 2.750000 3.659999 -5.999999
v 2.750000 3.529999 -6.999999
v 2.750000 3.420000 -7.219999
v 2.750000 3.339999 -7.269999
v 2.250000 3.000000 -7.039999
v 2.250000 3.000000 -7.319999
v 2.750000 3.339999 -6.999999
v 2.750000 3.339999 -5.999999
v 2.750000 3.000000 -7.319999
v 2.750000 3.000000 -7.039999
vn 1.0000 0.0000 0.0000
vn 0.0000 -1.0000 0.0000
vn 0.0000 0.9917 -0.1289
vn 0.0000 0.1455 -0.9894
vn 0.0000 0.0000 1.0000
vn 0.0000 -0.1168 0.9932
vn -1.0000 0.0000 0.0000
vn 0.0000 0.5300 -0.8480
vn 0.0000 0.8944 -0.4472
usemtl WHITE_HOT_STEEL.002
s off
f 25//7 20//7 19//7 26//7
f 22//7 21//7 20//7 25//7
f 22//8 25//8 16//8 18//8
f 19//9 20//9 13//9 15//9
f 18//10 22//10 27//10 24//10
f 28//7 27//7 22//7 25//7
f 19//11 15//11 14//11 26//11
f 25//12 16//12 23//12 28//12
f 27//8 28//8 23//8 24//8
f 18//13 24//13 23//13 16//13
f 25//8 26//8 14//8 16//8
f 13//13 16//13 14//13 15//13
f 17//14 21//14 22//14 18//14
f 17//13 18//13 16//13 13//13
f 20//15 21//15 17//15 13//15
o STEEL_LEVEL_ID66.002
v 1.000000 3.260000 0.000000
v 0.000000 3.260000 -4.000000
v 0.000000 3.260000 -1.000000
v 1.000000 3.260000 -5.000000
v 4.000000 3.260000 0.000000
v 4.000000 3.260000 -5.000000
v 5.000000 3.260000 -1.000000
v 5.000000 3.260000 -4.000000
vn 0.0000 1.0000 0.0000
usemtl WHITE_HOT_STEEL.002
s off
f 35//16 36//16 34//16 33//16
f 29//16 32//16 30//16 31//16
f 33//16 34//16 32//16 29//16
o group_2.001_ID59.002
v 4.000000 3.000000 -20.999996
v 4.000000 0.000000 -6.999999
v 4.000000 3.000000 -6.999999
v 4.000000 0.000000 -20.999996
v 1.000000 3.000000 -6.999999
v 1.000000 0.000000 -6.999999
v 1.000000 0.000000 -20.999996
v 1.000000 3.000000 -20.999996
vn 0.0000 0.0000 -1.0000
vn 1.0000 0.0000 0.0000
vn 0.0000 0.0000 1.0000
vn -1.0000 0.0000 0.0000
usemtl Color_006_.002
s off
f 41//17 39//17 38//17 42//17
f 43//18 44//18 41//18 42//18
f 37//19 44//19 43//19 40//19
f 37//20 40//20 38//20 39//20
o group_2_ID51.002
v 5.000000 0.000000 -21.999998
v 1.000000 0.000000 -20.999996
v 0.000000 0.000000 -21.999998
v 4.000000 0.000000 -20.999996
v 4.000000 0.000000 -6.999999
v 5.000000 0.000000 -5.999999
v 0.000000 0.000000 -5.999999
v 1.000000 0.000000 -6.999999
v 5.000000 3.000000 -5.999999
v 0.000000 3.000000 -5.999999
v 0.000000 3.000000 -21.999998
v 5.000000 3.000000 -21.999998
v 1.000000 3.000000 -6.999999
v 4.000000 3.000000 -6.999999
v 4.000000 3.000000 -20.999996
v 1.000000 3.000000 -20.999996
vn 0.0000 -1.0000 0.0000
vn 0.0000 1.0000 0.0000
vn -1.0000 0.0000 -0.0000
vn 1.0000 0.0000 0.0000
vn 0.0000 0.0000 1.0000
vn 0.0000 0.0000 -1.0000
usemtl Color_006_.002
s off
f 52//21 49//21 50//21 51//21
f 56//22 59//22 58//22 53//22
f 53//22 58//22 57//22 54//22
f 45//21 50//21 49//21 48//21
f 55//23 47//23 51//23 54//23
f 45//24 56//24 53//24 50//24
f 53//25 54//25 51//25 50//25
f 60//22 59//22 56//22 55//22
f 47//21 46//21 52//21 51//21
f 60//22 55//22 54//22 57//22
f 45//21 48//21 46//21 47//21
f 55//26 56//26 45//26 47//26
o group_1_ID42.002
v 1.000000 3.000000 -20.999996
v 1.000000 0.000000 -6.999999
v 1.000000 3.000000 -6.999999
v 1.000000 0.000000 -20.999996
v 4.000000 0.000000 -20.999996
v 4.000000 0.000000 -6.999999
v 4.000000 3.000000 -6.999999
v 4.000000 3.000000 -20.999996
vn 0.0000 0.0000 -1.0000
vn 1.0000 0.0000 0.0000
vn 0.0000 1.0000 0.0000
vn 0.0000 -1.0000 0.0000
vn 0.0000 0.0000 1.0000
vn -1.0000 0.0000 0.0000
usemtl Color_D08_.001
s off
f 61//27 68//27 65//27 64//27
f 65//28 68//28 67//28 66//28
f 67//29 68//29 61//29 63//29
f 65//30 66//30 62//30 64//30
f 67//31 63//31 62//31 66//31
f 61//32 64//32 62//32 63//32
o group_0.006_ID37.002
v 1.000000 3.250000 -1.000000
v 1.000000 3.000000 -1.000000
l 70 69
o group_0.005_ID33.002
v 4.000000 3.250000 -1.000000
v 4.000000 3.000000 -1.000000
l 72 71
o group_0.004_ID29.002
v 1.000000 3.250000 -4.000000
v 1.000000 3.000000 -4.000000
l 74 73
o group_0.003_ID23.002
v 4.000000 3.250000 -4.000000
v 4.000000 3.000000 -4.000000
l 76 75
o group_0.002_ID17.002
v 1.000000 3.000000 -5.999999
v 2.000000 3.104887 -5.999999
v 4.000000 3.000000 -5.999999
v 1.000000 8.000000 -5.999999
v 2.000000 4.000000 -5.999999
v 2.250000 4.000000 -5.999999
v 2.750000 4.000000 -5.999999
v 3.000000 4.000000 -5.999999
v 3.000000 3.104887 -5.999999
v 4.000000 8.000000 -5.999999
v 2.750000 3.340000 -5.999999
v 2.250000 3.340000 -5.999999
v 5.999999 8.000000 -4.000000
v 5.999999 3.000000 -4.000000
v 1.000000 3.000000 -4.999999
v 4.000000 3.000000 -4.999999
v 4.000000 3.000000 -4.000000
v 4.999999 3.000000 -4.000000
v 4.999999 3.000000 -1.000000
v 4.000000 3.000000 0.000000
v 4.000000 3.000000 -1.000000
v 4.000000 3.000000 1.000000
v 5.999999 3.000000 -1.000000
v -1.000000 3.000000 -1.000000
v 0.000000 3.000000 -1.000000
v 1.000000 3.000000 1.000000
v 0.000000 3.000000 -4.000000
v 1.000000 3.000000 0.000000
v 1.000000 3.000000 -1.000000
v -1.000000 3.000000 -4.000000
v 1.000000 3.000000 -4.000000
v -1.000000 8.000000 -4.000000
v -1.000000 8.000000 -1.000000
v 0.000000 8.000000 -1.000000
v 1.000000 8.000000 1.000000
v 1.000000 8.000000 0.000000
v 4.000000 8.000000 0.000000
v 4.000000 8.000000 1.000000
v 5.999999 8.000000 -1.000000
v 4.999999 8.000000 -1.000000
v 4.999999 8.000000 -4.000000
v 0.000000 8.000000 -4.000000
v 1.000000 8.000000 -4.999999
v 4.000000 8.000000 -4.999999
vn -0.0000 0.0000 -1.0000
vn 0.0000 -1.0000 0.0000
vn 1.0000 0.0000 0.0000
vn -0.7071 0.0000 -0.7071
vn 0.0000 0.0000 1.0000
vn -1.0000 0.0000 0.0000
vn 0.0000 1.0000 0.0000
vn 0.7071 0.0000 0.7071
vn -0.7071 0.0000 0.7071
vn 0.7071 0.0000 -0.7071
usemtl Color_007_.002
s off
f 85//33 84//33 86//33 79//33
f 85//33 79//33 77//33 78//33
f 80//33 81//33 78//33 77//33
f 95//34 99//34 98//34 96//34
f 90//35 89//35 115//35 99//35
f 108//36 80//36 77//36 106//36
f 99//34 95//34 94//34 90//34
f 77//34 107//34 103//34 106//34
f 93//37 90//37 94//37
f 108//38 106//38 100//38 109//38
f 95//34 96//34 97//34
f 101//34 104//34 102//34 100//34
f 118//39 119//39 80//39 108//39
f 96//34 98//34 102//34 104//34
f 104//34 101//34 105//34
f 82//33 83//33 87//33 88//33
f 80//33 83//33 82//33 81//33
f 107//37 77//37 91//37
f 99//40 115//40 114//40 98//40
f 114//37 111//37 102//37 98//37
f 90//34 93//34 92//34 79//34
f 89//39 117//39 116//39 115//39
f 111//39 112//39 110//39 109//39
f 106//34 103//34 101//34 100//34
f 117//39 89//39 86//39 120//39
f 118//39 108//39 109//39 110//39
f 115//39 116//39 113//39 114//39
f 79//34 92//34 91//34 77//34
f 120//39 86//39 80//39 119//39
f 111//41 109//41 100//41 102//41
f 79//42 86//42 89//42 90//42
f 86//33 84//33 83//33 80//33
f 111//39 114//39 113//39 112//39
o group_0.001_ID11.002
v 2.250000 4.000000 -5.999999
v 2.000000 4.000000 -7.000000
v 2.000000 4.000000 -5.999999
v 2.250000 4.000000 -7.000000
v 2.250000 3.340000 -7.000000
v 2.250000 3.340000 -5.999999
v 2.250000 3.104887 -7.000000
v 2.000000 3.104887 -7.000000
v 2.000000 3.104887 -5.999999
v 2.750000 3.340000 -5.999999
v 2.750000 3.340000 -7.000000
v 2.750000 3.104887 -7.000000
v 3.000000 3.104887 -5.999999
v 3.000000 3.104887 -7.000000
v 2.750000 4.000000 -7.000000
v 2.750000 4.000000 -5.999999
v 3.000000 4.000000 -7.000000
v 3.000000 4.000000 -5.999999
vn 1.0000 0.0000 0.0000
vn -1.0000 0.0000 0.0000
vn 0.0000 -0.9735 -0.2289
vn 0.0000 0.0000 -1.0000
vn 0.0000 1.0000 0.0000
vn 0.0000 -1.0000 0.0000
usemtl Color_007_.002
s off
f 125//43 124//43 121//43 126//43
f 135//44 131//44 130//44 136//44
f 131//45 134//45 133//45 132//45
f 125//46 122//46 124//46
f 130//47 131//47 125//47 126//47
f 125//46 131//46 132//46 127//46
f 121//47 124//47 122//47 123//47
f 127//48 129//48 128//48
f 131//46 135//46 137//46 134//46
f 127//48 132//48 133//48 129//48
f 122//46 125//46 127//46 128//46
f 138//47 137//47 135//47 136//47
f 122//44 128//44 129//44 123//44
f 134//43 137//43 138//43 133//43
o group_0_ID3.002
v 4.000000 8.000000 -4.999999
v 1.000000 3.250000 -4.999999
v 4.000000 3.250000 -4.999999
v 1.000000 8.000000 -4.999999
v 0.000000 8.000000 -4.000000
v 0.000000 3.250000 -4.000000
v 1.000000 3.250000 0.000000
v 0.000000 3.250000 -1.000000
v 4.000000 3.250000 0.000000
v 4.999999 3.250000 -1.000000
v 4.999999 3.250000 -4.000000
v 1.000000 3.000000 -4.999999
v 4.000000 3.000000 -4.999999
v 4.999999 8.000000 -4.000000
v 0.000000 8.000000 -1.000000
v 1.000000 8.000000 0.000000
v 4.000000 8.000000 0.000000
v 4.000000 3.000000 0.000000
v 1.000000 3.000000 0.000000
v 4.999999 8.000000 -1.000000
v 4.999999 3.000000 -1.000000
v 4.999999 3.000000 -4.000000
v 0.000000 3.000000 -4.000000
v 0.000000 3.000000 -1.000000
v 4.000000 0.000000 -4.999999
v 1.000000 0.000000 -4.999999
v 1.000000 0.000000 0.000000
v 4.000000 0.000000 0.000000
v 4.999999 0.000000 -4.000000
v 4.999999 0.000000 -1.000000
v 0.000000 0.000000 -1.000000
v 0.000000 0.000000 -4.000000
v 4.000000 0.000000 -1.000000
v 4.000000 0.000000 -4.000000
v 1.000000 0.000000 -4.000000
v 1.000000 0.000000 -1.000000
v 1.000000 3.000000 -4.000000
v 4.000000 3.000000 -4.000000
v 4.000000 3.000000 -1.000000
v 1.000000 3.000000 -1.000000
vn 0.0000 0.0000 1.0000
vn 0.0000 1.0000 0.0000
vn 1.0000 0.0000 0.0000
vn 0.0000 -1.0000 0.0000
vn 0.7071 0.0000 0.7071
vn -1.0000 0.0000 0.0000
vn 0.0000 0.0000 -1.0000
vn 0.7071 0.0000 -0.7071
vn -0.7071 0.0000 -0.7071
vn -0.7071 0.0000 0.7071
usemtl Color_007_.002
s off
f 141//49 140//49 150//49 151//49
f 159//49 177//49 171//49 168//49
f 148//50 149//50 141//50 147//50
f 167//51 160//51 159//51 168//51
f 163//52 174//52 173//52 164//52
f 178//49 162//49 169//49 174//49
f 156//49 157//49 165//49 166//49
f 140//53 142//53 143//53 144//53
f 161//54 170//54 169//54 162//54
f 150//54 164//54 173//54 175//54
f 147//50 141//50 140//50 145//50
f 171//51 177//51 156//51 166//51
f 161//55 175//55 173//55 170//55
f 163//52 166//52 165//52 174//52
f 173//52 174//52 169//52 170//52
f 161//51 144//51 146//51 162//51
f 176//55 160//55 167//55 172//55
f 167//52 168//52 171//52 172//52
f 149//54 160//54 159//54 148//54
f 154//55 155//55 147//55 145//55
f 172//49 171//49 166//49 163//49
f 145//50 140//50 144//50 146//50
f 150//55 151//55 163//55 164//55
f 146//56 153//56 154//56 145//56
f 178//54 174//54 165//54 157//54
f 144//51 143//51 153//51 146//51
f 145//55 147//55 156//55 157//55
f 155//57 158//57 148//57 147//57
f 139//58 141//58 149//58 152//58
f 152//54 149//54 148//54 158//54
f 163//51 151//51 176//51 172//51
f 139//49 142//49 140//49 141//49
