# Blender 3.6.4
# www.blender.org
mtllib template.mtl
o FLUID_HANDLER_1
v -3.248496 2.950290 -5.187868
v -3.248496 3.342147 -5.187869
v -3.248496 2.950290 -5.579724
v -3.248496 3.342147 -5.579724
v -2.856641 2.950290 -5.187868
v -2.856641 3.342147 -5.187869
v -2.856641 2.950290 -5.579724
v -2.856641 3.342147 -5.579724
vn -1.0000 -0.0000 -0.0000
vn -0.0000 -0.0000 -1.0000
vn 1.0000 -0.0000 -0.0000
vn -0.0000 -0.0000 1.0000
vn -0.0000 -1.0000 -0.0000
vn -0.0000 1.0000 -0.0000
vt 0.375000 0.000000
vt 0.625000 0.000000
vt 0.625000 0.250000
vt 0.375000 0.250000
vt 0.625000 0.500000
vt 0.375000 0.500000
vt 0.625000 0.750000
vt 0.375000 0.750000
vt 0.625000 1.000000
vt 0.375000 1.000000
vt 0.125000 0.500000
vt 0.125000 0.750000
vt 0.875000 0.500000
vt 0.875000 0.750000
s 0
usemtl mat
f 1/1/1 2/2/1 4/3/1 3/4/1
f 3/4/2 4/3/2 8/5/2 7/6/2
f 7/6/3 8/5/3 6/7/3 5/8/3
f 5/8/4 6/7/4 2/9/4 1/10/4
f 3/11/5 7/6/5 5/8/5 1/12/5
f 8/5/6 4/13/6 2/14/6 6/7/6
o FRAME
v -5.000000 0.000000 0.000000
v -5.000000 -0.000000 -1.000000
v 0.000000 0.000000 0.000000
v 0.000000 -0.000000 -1.000000
v -1.000000 -0.000000 -1.000000
v -2.000000 -0.000000 -1.000000
v -3.000000 -0.000000 -1.000000
v -4.000000 -0.000000 -1.000000
v -4.000000 2.000000 -1.000000
v -3.000000 2.000000 -1.000000
v -2.000000 2.000000 -1.000000
v -1.000000 2.000000 -1.000000
v -4.000000 0.000000 0.000000
v -2.824572 0.175428 -0.000000
v -2.175428 0.175428 -0.000000
v -1.000000 0.000000 0.000000
v -1.000000 2.000000 -0.000000
v -2.000000 2.000000 -0.000000
v -3.000000 2.000000 -0.000000
v -4.000000 2.000000 -0.000000
v -5.000000 1.000000 -0.000000
v -5.000000 1.000000 -1.000000
v 0.000000 1.000000 -1.000000
v 0.000000 1.000000 -0.000000
v -1.000000 1.000000 -0.000000
v -2.175428 0.824572 -0.000000
v -2.824572 0.824572 -0.000000
v -4.000000 1.000000 -0.000000
v -4.000000 1.000000 -1.000000
v -3.000000 1.000000 -1.000000
v -2.000000 1.000000 -1.000000
v -1.000000 1.000000 -1.000000
v -4.000000 2.000000 -0.000000
v -5.000000 1.000000 -0.000000
v -5.000000 1.000000 -1.000000
v -4.000000 2.000000 -1.000000
v 0.000000 1.000000 -0.000000
v -1.000000 2.000000 -0.000000
v -1.000000 2.000000 -1.000000
v 0.000000 1.000000 -1.000000
v -3.000000 3.000000 -1.000000
v -2.000000 3.000000 -1.000000
v -2.000000 3.000000 -0.000000
v -3.000000 3.000000 -0.000000
v -3.000000 2.000000 -4.000000
v -2.000000 2.000000 -4.000000
v -3.000000 3.000000 -4.000000
v -2.000000 3.000000 -4.000000
v -3.000000 3.000000 -3.000000
v -3.000000 3.000000 -2.000000
v -2.000000 2.000000 -2.000000
v -2.000000 2.000000 -3.000000
v -2.000000 3.000000 -3.000000
v -2.000000 3.000000 -2.000000
v -3.000000 2.000000 -3.000000
v -3.000000 2.000000 -2.000000
v -3.000000 1.628334 -4.000000
v -2.000000 1.628334 -4.000000
v -2.000000 1.628334 -3.000000
v -3.000000 1.628334 -3.000000
v -3.000000 0.000000 0.000000
v -2.000000 0.000000 0.000000
v -2.000000 1.000000 -0.000000
v -3.000000 1.000000 -0.000000
v -2.824572 0.175428 -0.248292
v -2.175428 0.175428 -0.248292
v -2.175428 0.824572 -0.248292
v -2.824572 0.824572 -0.248292
vn -0.0000 -0.0000 -0.0000
vn -0.0000 -0.0000 -1.0000
vn -0.0000 -1.0000 -0.0000
vn -0.0000 -0.0000 1.0000
vn -0.0000 1.0000 -0.0000
vn 1.0000 -0.0000 -0.0000
vn -1.0000 -0.0000 -0.0000
vn -0.7071 0.7071 -0.0000
vn 0.7071 0.7071 -0.0000
vt 0.833333 0.500000
vt 0.833333 0.750000
vt 0.500000 0.458333
vt 0.625000 0.458333
vt 0.500000 0.500000
vt 0.500000 0.000000
vt 0.500000 0.250000
vt 0.333333 0.500000
vt 0.375000 0.500000
vt 0.375000 0.750000
vt 0.333333 0.750000
vt 0.625000 0.291667
vt 0.500000 0.291667
vt 0.500000 0.750000
vt 0.625000 0.791667
vt 0.500000 0.791667
vt 0.666667 0.500000
vt 0.708333 0.500000
vt 0.708333 0.750000
vt 0.666667 0.750000
vt 0.625000 0.333333
vt 0.625000 0.416667
vt 0.791667 0.500000
vt 0.791667 0.750000
vt 0.125000 0.500000
vt 0.166667 0.500000
vt 0.166667 0.750000
vt 0.125000 0.750000
vt 0.208333 0.500000
vt 0.208333 0.750000
vt 0.375000 0.333333
vt 0.500000 0.333333
vt 0.500000 0.416667
vt 0.375000 0.416667
vt 0.291667 0.500000
vt 0.291667 0.750000
vt 0.625000 0.833333
vt 0.500000 0.833333
vt 0.500000 0.916667
vt 0.625000 0.916667
vt 0.625000 0.958333
vt 0.500000 0.958333
vt 0.375000 0.458333
vt 0.375000 0.291667
vt 0.375000 0.250000
vt 0.375000 0.916667
vt 0.375000 0.958333
vt 0.478072 0.909357
vt 0.478071 0.840643
vt 0.396928 0.840643
vt 0.375000 0.791667
vt 0.375000 0.833333
vt 0.500000 1.000000
vt 0.375000 1.000000
vt 0.375000 0.000000
vt 0.625000 0.000000
vt 0.625000 0.250000
vt 0.396928 0.909357
s 0
usemtl mat
f 17/15/7 44/15/7 41/16/7 28/16/7
f 40/17/8 20/18/8 47/18/8 48/19/8 31/19/8
f 29/20/7 42/20/7 43/21/7 30/21/7
f 13/22/9 12/23/9 11/24/9 24/25/9
f 30/21/8 43/21/8 44/26/8 17/26/8 37/27/8
f 32/28/10 45/28/10 46/29/10 25/29/10 33/30/10
f 20/31/11 19/32/11 26/33/11 25/34/11
f 53/35/8 55/35/8 56/36/8 54/36/8
f 61/32/12 60/32/12 54/32/12 56/32/12
f 18/37/11 17/15/11 28/16/11 27/38/11
f 10/39/9 16/40/9 21/41/9 9/42/9
f 16/40/9 15/43/9 69/44/9 21/41/9
f 15/45/8 38/46/8 39/47/8 14/48/8
f 14/49/9 13/22/9 24/25/9 70/50/9
f 31/19/7 48/19/7 45/28/7 32/28/7
f 33/30/10 25/29/10 26/51/10 71/52/10
f 18/35/8 19/36/8 39/47/8 38/46/8
f 72/53/10 27/54/10 28/55/10 36/56/10
f 47/31/7 20/31/7 25/34/7 46/34/7
f 37/27/8 17/26/8 18/35/8 38/46/8
f 49/37/11 52/38/11 51/33/11 50/32/11
f 39/47/8 19/36/8 20/18/8 40/17/8
f 14/48/8 39/47/8 40/17/8 13/57/8
f 26/51/10 27/54/10 72/53/10 71/52/10
f 16/58/8 37/27/8 38/46/8 15/45/8
f 10/59/8 30/21/8 37/27/8 16/58/8
f 69/60/10 72/53/10 36/56/10 21/61/10
f 35/62/9 76/62/9 75/63/9 34/63/9
f 23/64/13 34/63/13 75/63/13 74/64/13
f 24/65/10 33/30/10 71/52/10 70/66/10
f 11/24/10 32/28/10 33/30/10 24/65/10
f 21/61/10 36/56/10 29/67/10 9/68/10
f 12/23/12 31/19/12 32/28/12 11/24/12
f 13/57/8 40/17/8 31/19/8 12/23/8
f 9/69/13 29/20/13 30/21/13 10/59/13
f 41/70/14 44/71/14 43/21/14 42/20/14
f 47/31/15 46/34/15 45/28/15 48/19/15
f 36/56/10 28/55/10 41/55/10 42/67/10 29/67/10
f 26/51/10 51/51/10 52/54/10 27/54/10
f 18/37/13 27/38/13 52/38/13 49/37/13
f 26/33/12 19/32/12 50/32/12 51/33/12
f 14/49/9 70/50/9 69/44/9 15/43/9
f 49/37/11 50/32/11 62/32/11 58/37/11
f 63/35/10 68/35/10 67/36/10 60/36/10
f 63/37/13 57/37/13 55/37/13 53/37/13
f 54/32/12 60/32/12 67/32/12 66/32/12
f 59/36/9 64/35/9 63/35/9 60/36/9
f 68/35/9 65/35/9 66/36/9 67/36/9
f 18/37/13 49/37/13 58/37/13 64/37/13
f 64/37/13 58/37/13 57/37/13 63/37/13
f 58/37/11 62/32/11 61/32/11 57/37/11
f 19/36/9 18/35/9 64/35/9 59/36/9
f 50/32/12 19/32/12 59/32/12 62/32/12
f 62/32/12 59/32/12 60/32/12 61/32/12
f 53/35/8 54/36/8 66/36/8 65/35/8
f 63/37/13 53/37/13 65/37/13 68/37/13
f 23/64/10 22/72/10 69/60/10 70/66/10
f 35/62/10 34/63/10 71/52/10 72/53/10
f 34/63/10 23/64/10 70/66/10 71/52/10
f 22/72/10 35/62/10 72/53/10 69/60/10
f 74/64/10 75/63/10 76/62/10 73/72/10
f 22/72/11 23/64/11 74/64/11 73/72/11
f 35/62/12 22/72/12 73/72/12 76/62/12
f 61/32/11 56/32/11 55/37/11 57/37/11
o ITEM_OUTPUT
v -3.196330 2.308176 -3.735775
v -3.196330 2.700032 -3.735775
v -3.196330 2.308176 -4.127630
v -3.196330 2.700032 -4.127630
v -2.804475 2.308176 -3.735775
v -2.804475 2.700032 -3.735775
v -2.804475 2.308176 -4.127630
v -2.804475 2.700032 -4.127630
vn -1.0000 -0.0000 -0.0000
vn -0.0000 -0.0000 -1.0000
vn 1.0000 -0.0000 -0.0000
vn -0.0000 -0.0000 1.0000
vn -0.0000 -1.0000 -0.0000
vn -0.0000 1.0000 -0.0000
vt 0.375000 0.000000
vt 0.625000 0.000000
vt 0.625000 0.250000
vt 0.375000 0.250000
vt 0.625000 0.500000
vt 0.375000 0.500000
vt 0.625000 0.750000
vt 0.375000 0.750000
vt 0.625000 1.000000
vt 0.375000 1.000000
vt 0.125000 0.500000
vt 0.125000 0.750000
vt 0.875000 0.500000
vt 0.875000 0.750000
s 0
usemtl mat
f 77/73/16 78/74/16 80/75/16 79/76/16
f 79/76/17 80/75/17 84/77/17 83/78/17
f 83/78/18 84/77/18 82/79/18 81/80/18
f 81/80/19 82/79/19 78/81/19 77/82/19
f 79/83/20 83/78/20 81/80/20 77/84/20
f 84/77/21 80/85/21 78/86/21 82/79/21
o FRAME_1
v -4.000988 1.782682 -2.207939
v -4.000988 3.782682 -2.207939
v -4.000988 1.782682 -4.207939
v -4.000988 3.782682 -4.207939
v -2.000988 1.782682 -2.207939
v -2.000988 3.782682 -2.207939
v -2.000988 1.782682 -4.207939
v -2.000988 3.782682 -4.207939
vn -1.0000 -0.0000 -0.0000
vn -0.0000 -0.0000 -1.0000
vn 1.0000 -0.0000 -0.0000
vn -0.0000 -0.0000 1.0000
vn -0.0000 -1.0000 -0.0000
vn -0.0000 1.0000 -0.0000
vt 0.375000 0.000000
vt 0.625000 0.000000
vt 0.625000 0.250000
vt 0.375000 0.250000
vt 0.625000 0.500000
vt 0.375000 0.500000
vt 0.625000 0.750000
vt 0.375000 0.750000
vt 0.625000 1.000000
vt 0.375000 1.000000
vt 0.125000 0.500000
vt 0.125000 0.750000
vt 0.875000 0.500000
vt 0.875000 0.750000
s 0
f 85/87/22 86/88/22 88/89/22 87/90/22
f 87/90/23 88/89/23 92/91/23 91/92/23
f 91/92/24 92/91/24 90/93/24 89/94/24
f 89/94/25 90/93/25 86/95/25 85/96/25
f 87/97/26 91/92/26 89/94/26 85/98/26
f 92/91/27 88/99/27 86/100/27 90/93/27
