# Blender v2.78 (sub 0) OBJ File: 'Brake Stick.blend'
# www.blender.org
mtllib brake_stick.mtl
o brake_stick_Cylinder
v 0.000000 -0.401067 -0.014575
v 0.000000 -0.371918 -0.014575
v 0.005578 -0.401067 -0.013465
v 0.005578 -0.371918 -0.013465
v 0.010306 -0.401067 -0.010306
v 0.010306 -0.371918 -0.010306
v 0.013465 -0.401067 -0.005577
v 0.013465 -0.371918 -0.005577
v 0.014575 -0.401067 0.000000
v 0.014575 -0.371918 0.000000
v 0.013465 -0.401067 0.005577
v 0.013465 -0.371918 0.005577
v 0.010306 -0.401067 0.010306
v 0.010306 -0.371918 0.010306
v 0.005578 -0.401067 0.013465
v 0.005578 -0.371918 0.013465
v 0.000000 -0.401067 0.014575
v 0.000000 -0.371918 0.014575
v -0.005577 -0.401067 0.013465
v -0.005577 -0.371918 0.013465
v -0.010306 -0.401067 0.010306
v -0.010306 -0.371918 0.010306
v -0.013465 -0.401067 0.005577
v -0.013465 -0.371918 0.005577
v -0.014574 -0.401067 -0.000000
v -0.014574 -0.371918 -0.000000
v -0.013465 -0.401067 -0.005577
v -0.013465 -0.371918 -0.005577
v -0.010306 -0.401067 -0.010306
v -0.010306 -0.371918 -0.010306
v -0.005577 -0.401067 -0.013465
v -0.005577 -0.371918 -0.013465
v 0.005578 -0.345918 -0.013465
v 0.000000 -0.345918 -0.014575
v 0.010306 -0.345918 -0.010306
v 0.013465 -0.345918 -0.005577
v 0.014575 -0.345918 0.000000
v 0.013465 -0.345918 0.005577
v 0.010306 -0.345918 0.010306
v 0.005578 -0.345918 0.013465
v 0.000000 -0.345918 0.014575
v -0.005577 -0.345918 0.013465
v -0.010306 -0.345918 0.010306
v -0.013465 -0.345918 0.005577
v -0.014574 -0.345918 -0.000000
v -0.013465 -0.345918 -0.005577
v -0.010306 -0.345918 -0.010306
v -0.005577 -0.345918 -0.013465
v 0.005578 0.522082 -0.013465
v 0.000000 0.522082 -0.014575
v 0.010306 0.522082 -0.010306
v 0.013465 0.522082 -0.005577
v 0.014575 0.522082 0.000000
v 0.013465 0.522082 0.005577
v 0.010306 0.522082 0.010306
v 0.005578 0.522082 0.013465
v 0.000000 0.522082 0.014575
v -0.005577 0.522082 0.013465
v -0.010306 0.522082 0.010306
v -0.013465 0.522082 0.005577
v -0.014574 0.522082 -0.000000
v -0.013465 0.522082 -0.005577
v -0.010306 0.522082 -0.010306
v -0.005577 0.522082 -0.013465
v 0.005578 0.556082 -0.013465
v 0.000000 0.556082 -0.014575
v 0.010306 0.556082 -0.010306
v 0.013465 0.556082 -0.005577
v 0.014575 0.556082 0.000000
v 0.013465 0.556082 0.005577
v 0.010306 0.556082 0.010306
v 0.005578 0.556082 0.013465
v 0.000000 0.556082 0.014575
v -0.005577 0.556082 0.013465
v -0.010306 0.556082 0.010306
v -0.013465 0.556082 0.005577
v -0.014574 0.556082 -0.000000
v -0.013465 0.556082 -0.005577
v -0.010306 0.556082 -0.010306
v -0.005577 0.556082 -0.013465
v 0.005577 0.620082 -0.013465
v -0.000000 0.620082 -0.014575
v 0.010306 0.620082 -0.010306
v 0.013465 0.620082 -0.005577
v 0.014574 0.620082 0.000000
v 0.013465 0.620082 0.005577
v 0.010306 0.620082 0.010306
v 0.005577 0.620082 0.013465
v -0.000000 0.620082 0.014575
v -0.005578 0.620082 0.013465
v -0.010306 0.620082 0.010306
v -0.013465 0.620082 0.005577
v -0.014575 0.620082 -0.000000
v -0.013465 0.620082 -0.005577
v -0.010306 0.620082 -0.010306
v -0.005578 0.620082 -0.013465
v 0.009482 0.620082 -0.022891
v -0.000000 0.620082 -0.024777
v 0.017520 0.620082 -0.017520
v 0.022891 0.620082 -0.009482
v 0.024777 0.620082 0.000000
v 0.022891 0.620082 0.009482
v 0.017520 0.620082 0.017520
v 0.009482 0.620082 0.022891
v -0.000000 0.620082 0.024777
v -0.009482 0.620082 0.022891
v -0.017520 0.620082 0.017520
v -0.022891 0.620082 0.009482
v -0.024777 0.620082 -0.000000
v -0.022891 0.620082 -0.009482
v -0.017520 0.620082 -0.017520
v -0.009482 0.620082 -0.022891
v 0.009482 0.750082 -0.022891
v -0.000000 0.750082 -0.024777
v 0.017520 0.750082 -0.017520
v 0.022891 0.750082 -0.009482
v 0.024777 0.750082 0.000000
v 0.022891 0.750082 0.009482
v 0.017520 0.750082 0.017520
v 0.009482 0.750082 0.022891
v 0.000000 0.750082 0.024777
v -0.009482 0.750082 0.022891
v -0.017520 0.750082 0.017520
v -0.022891 0.750082 0.009482
v -0.024777 0.750082 -0.000000
v -0.022891 0.750082 -0.009482
v -0.017520 0.750082 -0.017520
v -0.009482 0.750082 -0.022891
v 0.005530 0.750082 -0.013350
v -0.000000 0.750082 -0.014450
v 0.010218 0.750082 -0.010218
v 0.013350 0.750082 -0.005530
v 0.014450 0.750082 0.000000
v 0.013350 0.750082 0.005530
v 0.010218 0.750082 0.010218
v 0.005530 0.750082 0.013350
v 0.000000 0.750082 0.014450
v -0.005530 0.750082 0.013350
v -0.010218 0.750082 0.010218
v -0.013350 0.750082 0.005530
v -0.014450 0.750082 -0.000000
v -0.013350 0.750082 -0.005530
v -0.010218 0.750082 -0.010218
v -0.005530 0.750082 -0.013350
v 0.005530 0.790082 -0.013350
v -0.000000 0.790082 -0.014450
v 0.010217 0.790082 -0.010218
v 0.013350 0.790082 -0.005530
v 0.014450 0.790082 0.000000
v 0.013350 0.790082 0.005530
v 0.010217 0.790082 0.010218
v 0.005530 0.790082 0.013350
v -0.000000 0.790082 0.014450
v -0.005530 0.790082 0.013350
v -0.010218 0.790082 0.010218
v -0.013350 0.790082 0.005530
v -0.014450 0.790082 -0.000000
v -0.013350 0.790082 -0.005530
v -0.010218 0.790082 -0.010218
v -0.005530 0.790082 -0.013350
v 0.005529 0.820082 -0.013350
v -0.000000 0.820082 -0.014450
v 0.010217 0.820082 -0.010218
v 0.013350 0.820082 -0.005530
v 0.014450 0.820082 0.000000
v 0.013350 0.820082 0.005530
v 0.010217 0.820082 0.010218
v 0.005529 0.820082 0.013350
v -0.000000 0.820082 0.014450
v -0.005530 0.820082 0.013350
v -0.010218 0.820082 0.010218
v -0.013350 0.820082 0.005530
v -0.014450 0.820082 -0.000000
v -0.013350 0.820082 -0.005530
v -0.010218 0.820082 -0.010218
v -0.005530 0.820082 -0.013350
v 0.005530 0.870082 -0.013350
v -0.000000 0.870082 -0.014450
v 0.010217 0.870082 -0.010218
v 0.013350 0.870082 -0.005530
v 0.014450 0.870082 0.000000
v 0.013350 0.870082 0.005530
v 0.010217 0.870082 0.010218
v 0.005530 0.870082 0.013350
v -0.000000 0.870082 0.014450
v -0.005530 0.870082 0.013350
v -0.010218 0.870082 0.010218
v -0.013350 0.870082 0.005530
v -0.014450 0.870082 -0.000000
v -0.013350 0.870082 -0.005530
v -0.010218 0.870082 -0.010218
v -0.005530 0.870082 -0.013350
v 0.007465 0.870082 -0.018022
v -0.000000 0.870082 -0.019507
v 0.013794 0.870082 -0.013794
v 0.018022 0.870082 -0.007465
v 0.019507 0.870082 0.000000
v 0.018022 0.870082 0.007465
v 0.013794 0.870082 0.013794
v 0.007465 0.870082 0.018022
v -0.000000 0.870082 0.019507
v -0.007465 0.870082 0.018022
v -0.013794 0.870082 0.013794
v -0.018022 0.870082 0.007465
v -0.019507 0.870082 -0.000000
v -0.018022 0.870082 -0.007465
v -0.013794 0.870082 -0.013794
v -0.007465 0.870082 -0.018022
v 0.005375 0.950082 -0.009750
v -0.000000 0.950082 -0.009750
v 0.009931 0.950082 -0.009750
v 0.014195 0.950082 -0.009757
v 0.014197 0.950082 -0.000000
v 0.014200 0.950082 0.009753
v 0.011918 0.950082 0.009751
v 0.006450 0.950082 0.009751
v -0.000000 0.950082 0.009751
v -0.006450 0.950082 0.009751
v -0.013628 0.950082 0.009751
v -0.013628 0.950082 0.009751
v -0.013628 0.950082 -0.000000
v -0.013628 0.950082 -0.009750
v -0.009932 0.950082 -0.009750
v -0.005375 0.950082 -0.009750
v 0.005375 0.950082 -0.002637
v -0.000000 0.950082 -0.002637
v 0.009931 0.950082 -0.002637
v 0.014195 0.950082 -0.002639
v 0.014197 0.950082 -0.000000
v 0.014200 0.950082 0.002638
v 0.011918 0.950082 0.002638
v 0.006450 0.950082 0.002638
v -0.000000 0.950082 0.002638
v -0.006450 0.950082 0.002638
v -0.013628 0.950082 0.002638
v -0.013628 0.950082 0.002638
v -0.013628 0.950082 0.000000
v -0.013628 0.950082 -0.002637
v -0.009932 0.950082 -0.002637
v -0.005375 0.950082 -0.002637
v -0.013628 0.990082 -0.002637
v -0.013628 0.983416 0.002638
v 0.020096 0.998018 -0.002639
v 0.014195 0.980082 -0.002639
v 0.020101 0.998018 0.002638
v 0.014200 0.980082 0.002638
v -0.013628 0.990082 0.002638
v -0.013628 0.983416 -0.002637
v -0.013628 0.986749 -0.002637
v -0.013628 0.983416 0.002638
v -0.013628 0.980082 0.002638
v -0.013628 0.980082 0.002638
v -0.013628 0.986749 0.002638
v -0.013628 0.980082 -0.002637
v -0.013628 0.986749 0.002638
v -0.013628 0.990082 0.002638
v 0.017274 0.992017 -0.002639
v 0.014879 0.986495 -0.002639
v 0.014884 0.986495 0.002638
v 0.017279 0.992017 0.002638
v -0.013628 1.020082 -0.002637
v 0.020096 1.012147 -0.002639
v 0.020101 1.012147 0.002638
v -0.013628 1.020082 0.002638
v -0.013628 1.020082 0.002638
v -0.013628 1.030082 -0.002637
v 0.011762 1.030082 -0.002639
v 0.011767 1.030082 0.002638
v -0.013628 1.030082 0.002638
v -0.013628 1.030082 0.002638
v 0.015767 1.018148 0.002638
v 0.012767 1.026749 0.002638
v -0.013628 1.026749 0.002638
v -0.013628 1.023416 0.002638
v -0.013628 1.023416 -0.002637
v -0.013628 1.026749 -0.002637
v 0.012762 1.026749 -0.002639
v 0.015762 1.018148 -0.002639
v -0.013628 1.026749 0.002638
v -0.013628 1.023416 0.002638
v 0.023600 1.000844 -0.002644
v 0.023605 1.000844 0.002633
v 0.023600 1.009321 -0.002644
v 0.023605 1.009321 0.002633
v 0.028600 1.002539 -0.002649
v 0.028605 1.002539 0.002629
v 0.028600 1.007625 -0.002649
v 0.028605 1.007625 0.002629
v 0.033600 1.002539 -0.002654
v 0.033605 1.002539 0.002624
v 0.033600 1.007625 -0.002654
v 0.033605 1.007625 0.002624
v 0.038600 1.000250 -0.002659
v 0.038605 1.000250 0.002618
v 0.038600 1.009914 -0.002659
v 0.038605 1.009914 0.002618
v 0.043600 0.995901 -0.002664
v 0.043605 0.995901 0.002614
v 0.043600 1.014263 -0.002664
v 0.043605 1.014263 0.002614
v 0.050600 0.982130 -0.002671
v 0.050605 0.982130 0.002607
v 0.050600 1.028034 -0.002671
v 0.050605 1.028034 0.002607
v 0.052600 0.980149 -0.002672
v 0.052605 0.980149 0.002605
v 0.052600 1.030015 -0.002672
v 0.052605 1.030015 0.002605
v 0.055094 0.979360 -0.002675
v 0.055099 0.979360 0.002603
v 0.055094 1.030805 -0.002675
v 0.055099 1.030805 0.002603
v 0.061094 0.979360 -0.002684
v 0.061099 0.979360 0.002593
v 0.061094 1.030805 -0.002684
v 0.061099 1.030805 0.002593
v 0.062733 0.981932 -0.002686
v 0.062738 0.981932 0.002592
v 0.062733 1.028232 -0.002686
v 0.062738 1.028232 0.002592
v -0.013628 1.040082 -0.002637
v 0.011762 1.040082 -0.002639
v 0.011767 1.040082 0.002638
v -0.013628 1.040082 0.002638
v -0.013628 1.040082 0.002638
vn 0.5556 0.0000 -0.8315
vn 0.8315 0.0000 -0.5556
vn 0.9808 0.0000 -0.1951
vn 0.9808 0.0000 0.1951
vn 0.8315 0.0000 0.5556
vn 0.5556 0.0000 0.8315
vn 0.1951 0.0000 0.9808
vn -0.1951 0.0000 0.9808
vn -0.5556 0.0000 0.8315
vn -0.8315 0.0000 0.5556
vn -0.9808 0.0000 0.1951
vn -0.9808 0.0000 -0.1951
vn -0.8315 0.0000 -0.5556
vn -0.5556 0.0000 -0.8315
vn -0.1951 0.0000 -0.9808
vn 0.0000 -1.0000 0.0000
vn 0.1951 0.0000 -0.9808
vn 0.0000 1.0000 -0.0000
vn -0.0011 0.0504 0.9987
vn -0.0001 0.0505 -0.9987
vn 0.8312 0.0239 -0.5554
vn 0.9985 -0.0540 0.0000
vn -0.0000 -0.0000 1.0000
vn -0.0001 0.0000 -1.0000
vn -0.1054 0.1120 0.9881
vn 0.0009 0.0000 1.0000
vn -0.0005 -0.0000 -1.0000
vn -0.0001 -0.0001 -1.0000
vn -0.0009 -0.0000 -1.0000
vn -1.0000 0.0000 0.0000
vn -0.8914 0.4531 0.0008
vn 0.8433 -0.5374 -0.0008
vn -0.9943 0.0626 -0.0858
vn -0.9943 0.0626 0.0858
vn 0.8312 0.0238 0.5554
vn -0.8311 0.0298 -0.5553
vn -0.3608 0.0849 -0.9288
vn 0.3608 0.0849 -0.9288
vn -0.1142 0.1127 -0.9870
vn 0.9948 0.0556 -0.0859
vn 0.1142 0.1127 -0.9870
vn 0.1054 0.1120 0.9881
vn 0.3364 0.0783 0.9385
vn -0.0018 0.0504 -0.9987
vn -0.8311 0.0298 0.5553
vn 0.9948 0.0556 0.0856
vn -0.0003 -0.0000 1.0000
vn 0.9998 0.0000 -0.0198
vn 0.9944 -0.1061 -0.0009
vn -0.3017 0.9534 0.0003
vn 1.0000 0.0000 0.0000
vn 0.9049 -0.4256 -0.0009
vn 0.0000 -0.0001 -1.0000
vn -0.0000 -0.0000 -1.0000
vn 0.0011 0.0000 1.0000
vn -0.4162 0.9093 0.0004
vn 1.0000 0.0000 -0.0011
vn 1.0000 -0.0000 -0.0009
vn 0.0013 0.0000 1.0000
vn 0.6278 -0.7784 -0.0006
vn 0.9174 -0.3979 -0.0009
vn 0.3212 -0.9470 -0.0003
vn 0.9442 0.3293 -0.0009
vn 0.6278 0.7783 -0.0006
vn 0.3211 0.9470 -0.0003
vn -0.4162 -0.9093 0.0004
vn -0.6563 -0.7545 0.0006
vn -0.0011 -0.0000 -1.0000
vn 0.9578 0.2873 -0.0009
vn -0.0013 -0.0000 -1.0000
vn -0.6563 0.7545 0.0006
vn -0.8914 -0.4531 0.0008
vn -0.0016 -0.0000 -1.0000
vn -0.7037 0.7105 0.0007
vn 0.0016 0.0000 1.0000
vn -0.2979 0.0754 0.9516
vn -0.3017 -0.9534 0.0003
vn 0.8433 0.5374 -0.0008
vn 0.8107 0.5855 -0.0008
vn -0.7037 -0.7105 0.0007
usemtl Material.001
s off
f 5//1 3//1 4//1 6//1
f 7//2 5//2 6//2 8//2
f 9//3 7//3 8//3 10//3
f 11//4 9//4 10//4 12//4
f 13//5 11//5 12//5 14//5
f 15//6 13//6 14//6 16//6
f 17//7 15//7 16//7 18//7
f 19//8 17//8 18//8 20//8
f 21//9 19//9 20//9 22//9
f 23//10 21//10 22//10 24//10
f 25//11 23//11 24//11 26//11
f 27//12 25//12 26//12 28//12
f 29//13 27//13 28//13 30//13
f 31//14 29//14 30//14 32//14
f 1//15 31//15 32//15 2//15
f 55//5 39//5 38//5 54//5
f 31//16 1//16 3//16
f 3//16 5//16 31//16
f 7//16 9//16 11//16
f 11//16 13//16 15//16
f 15//16 17//16 23//16
f 19//16 21//16 23//16
f 23//16 25//16 27//16
f 27//16 29//16 23//16
f 31//16 5//16 7//16
f 7//16 11//16 15//16
f 17//16 19//16 23//16
f 23//16 29//16 31//16
f 63//13 47//13 46//13 62//13
f 56//6 40//6 39//6 55//6
f 64//14 48//14 47//14 63//14
f 57//7 41//7 40//7 56//7
f 49//17 33//17 34//17 50//17
f 50//15 34//15 48//15 64//15
f 58//8 42//8 41//8 57//8
f 51//1 35//1 33//1 49//1
f 59//9 43//9 42//9 58//9
f 52//2 36//2 35//2 51//2
f 60//10 44//10 43//10 59//10
f 53//3 37//3 36//3 52//3
f 61//11 45//11 44//11 60//11
f 54//4 38//4 37//4 53//4
f 62//12 46//12 45//12 61//12
f 89//8 90//8 74//8 73//8
f 90//9 91//9 75//9 74//9
f 87//6 88//6 72//6 71//6
f 91//10 92//10 76//10 75//10
f 95//13 79//13 78//13 94//13
f 92//11 93//11 77//11 76//11
f 85//4 86//4 70//4 69//4
f 149//3 133//3 132//3 148//3
f 179//2 180//2 164//2 163//2
f 84//2 68//2 67//2 83//2
f 96//14 80//14 79//14 95//14
f 88//7 89//7 73//7 72//7
f 81//17 65//17 66//17 82//17
f 82//15 66//15 80//15 96//15
f 180//3 181//3 165//3 164//3
f 150//5 151//5 135//5 134//5
f 160//14 144//14 143//14 159//14
f 147//1 131//1 129//1 145//1
f 145//17 129//17 130//17 146//17
f 153//8 154//8 138//8 137//8
f 83//1 67//1 65//1 81//1
f 154//9 155//9 139//9 138//9
f 186//8 170//8 169//8 185//8
f 86//5 87//5 71//5 70//5
f 156//11 157//11 141//11 140//11
f 149//4 150//4 134//4 133//4
f 158//12 142//12 141//12 157//12
f 185//7 169//7 168//7 184//7
f 85//3 69//3 68//3 84//3
f 151//6 152//6 136//6 135//6
f 146//15 130//15 144//15 160//15
f 152//7 153//7 137//7 136//7
f 192//15 178//15 162//15 176//15
f 187//9 171//9 170//9 186//9
f 188//10 172//10 171//10 187//10
f 183//5 167//5 166//5 182//5
f 189//11 173//11 172//11 188//11
f 182//4 166//4 165//4 181//4
f 189//12 190//12 174//12 173//12
f 190//13 191//13 175//13 174//13
f 177//1 179//1 163//1 161//1
f 184//6 168//6 167//6 183//6
f 178//17 177//17 161//17 162//17
f 155//10 156//10 140//10 139//10
f 148//2 132//2 131//2 147//2
f 159//13 143//13 142//13 158//13
f 191//14 192//14 176//14 175//14
f 15//16 23//16 31//16 7//16
f 94//12 78//12 77//12 93//12
f 3//17 1//17 2//17 4//17
usemtl Material.002
f 39//5 14//5 12//5 38//5
f 34//15 2//15 32//15 48//15
f 42//8 20//8 18//8 41//8
f 37//3 10//3 8//3 36//3
f 35//1 6//1 4//1 33//1
f 47//13 30//13 28//13 46//13
f 48//14 32//14 30//14 47//14
f 40//6 16//6 14//6 39//6
f 45//11 26//11 24//11 44//11
f 38//4 12//4 10//4 37//4
f 43//9 22//9 20//9 42//9
f 36//2 8//2 6//2 35//2
f 46//12 28//12 26//12 45//12
f 41//7 18//7 16//7 40//7
f 33//17 4//17 2//17 34//17
f 75//10 76//10 60//10 59//10
f 78//12 62//12 61//12 77//12
f 69//3 53//3 52//3 68//3
f 77//11 61//11 60//11 76//11
f 70//4 54//4 53//4 69//4
f 70//5 71//5 55//5 54//5
f 79//13 63//13 62//13 78//13
f 72//6 56//6 55//6 71//6
f 73//7 57//7 56//7 72//7
f 66//15 50//15 64//15 80//15
f 65//17 49//17 50//17 66//17
f 67//1 51//1 49//1 65//1
f 74//8 58//8 57//8 73//8
f 74//9 75//9 59//9 58//9
f 68//2 52//2 51//2 67//2
f 176//14 160//14 159//14 175//14
f 165//3 149//3 148//3 164//3
f 174//12 158//12 157//12 173//12
f 168//7 169//7 153//7 152//7
f 167//6 168//6 152//6 151//6
f 172//11 173//11 157//11 156//11
f 166//5 167//5 151//5 150//5
f 165//4 166//4 150//4 149//4
f 175//13 159//13 158//13 174//13
f 164//2 148//2 147//2 163//2
f 163//1 147//1 145//1 161//1
f 161//17 145//17 146//17 162//17
f 169//8 170//8 154//8 153//8
f 170//9 171//9 155//9 154//9
f 162//15 146//15 160//15 176//15
f 171//10 172//10 156//10 155//10
f 80//14 64//14 63//14 79//14
f 44//10 24//10 22//10 43//10
usemtl Material.003
f 118//5 119//5 103//5 102//5
f 117//3 101//3 100//3 116//3
f 105//16 89//16 88//16 104//16
f 125//11 109//11 108//11 124//11
f 135//18 119//18 118//18 134//18
f 97//16 81//16 82//16 98//16
f 139//18 123//18 122//18 138//18
f 107//16 108//16 92//16 91//16
f 141//18 125//18 124//18 140//18
f 107//16 91//16 90//16 106//16
f 100//16 84//16 83//16 99//16
f 102//16 86//16 85//16 101//16
f 132//18 116//18 115//18 131//18
f 110//16 94//16 93//16 109//16
f 101//16 85//16 84//16 100//16
f 144//18 128//18 127//18 143//18
f 136//18 120//18 119//18 135//18
f 117//4 118//4 102//4 101//4
f 126//12 110//12 109//12 125//12
f 127//13 111//13 110//13 126//13
f 123//10 124//10 108//10 107//10
f 128//14 112//14 111//14 127//14
f 120//7 121//7 105//7 104//7
f 113//17 97//17 98//17 114//17
f 128//15 114//15 98//15 112//15
f 121//8 122//8 106//8 105//8
f 123//9 107//9 106//9 122//9
f 116//2 100//2 99//2 115//2
f 98//16 82//16 96//16 112//16
f 140//18 124//18 123//18 139//18
f 130//18 129//18 113//18 114//18
f 134//18 118//18 117//18 133//18
f 141//18 142//18 126//18 125//18
f 143//18 127//18 126//18 142//18
f 137//18 121//18 120//18 136//18
f 111//16 95//16 94//16 110//16
f 102//16 103//16 87//16 86//16
f 120//6 104//6 103//6 119//6
f 112//16 96//16 95//16 111//16
f 108//16 109//16 93//16 92//16
f 130//18 114//18 128//18 144//18
f 129//18 131//18 115//18 113//18
f 138//18 122//18 121//18 137//18
f 106//16 90//16 89//16 105//16
f 103//16 104//16 88//16 87//16
f 133//18 117//18 116//18 132//18
f 99//16 83//16 81//16 97//16
f 113//1 115//1 99//1 97//1
usemtl Material.004
f 199//19 214//19 215//19
f 207//20 222//20 223//20
f 195//21 212//21 196//21
f 204//22 219//22 220//22
f 231//23 246//23 232//23
f 220//16 235//16 236//16
f 213//23 228//23 229//23
f 221//23 236//23 237//23
f 214//16 229//16 230//16
f 222//18 237//18 238//18
f 249//24 241//24 257//24 258//24
f 217//25 218//25 202//25 201//25
f 312//26 308//26 306//26 310//26
f 244//27 228//27 227//27
f 257//24 241//24 243//24
f 246//23 242//23 251//23
f 273//23 268//23 269//23
f 194//16 178//16 192//16 208//16
f 261//28 278//28 262//28
f 275//24 277//24 278//24 261//24
f 294//26 300//26 296//26
f 299//29 301//29 297//29
f 293//29 299//29 297//29
f 302//26 308//26 304//26
f 298//26 304//26 300//26
f 303//29 305//29 301//29
f 314//26 320//26 316//26
f 313//29 319//29 317//29
f 325//16 324//16 323//16
f 248//30 254//30 252//30 250//30
f 241//30 249//30 253//30 256//30
f 235//18 219//18 218//18 234//18
f 271//23 272//23 274//23 264//23
f 197//16 198//16 182//16 181//16
f 199//16 200//16 184//16 183//16
f 303//31 299//31 300//31 304//31
f 324//23 269//23 268//23 323//23
f 206//16 207//16 191//16 190//16
f 197//16 181//16 180//16 196//16
f 195//16 179//16 177//16 193//16
f 203//16 187//16 186//16 202//16
f 201//16 202//16 186//16 185//16
f 208//16 192//16 191//16 207//16
f 318//32 314//32 313//32 317//32
f 199//16 183//16 182//16 198//16
f 232//18 233//18 217//18 216//18
f 291//29 289//29 285//29 287//29
f 274//23 272//23 268//23 273//23
f 204//16 205//16 189//16 188//16
f 193//16 177//16 178//16 194//16
f 196//16 180//16 179//16 195//16
f 201//16 185//16 184//16 200//16
f 206//16 190//16 189//16 205//16
f 203//16 204//16 188//16 187//16
f 240//18 224//18 223//18 239//18
f 221//33 222//33 206//33 205//33
f 221//34 205//34 204//34 220//34
f 199//35 198//35 214//35
f 207//36 206//36 222//36
f 223//37 224//37 208//37 207//37
f 211//38 195//38 193//38 209//38
f 224//39 210//39 194//39 208//39
f 213//40 197//40 196//40 212//40
f 209//41 193//41 194//41 210//41
f 217//42 201//42 200//42 216//42
f 286//26 288//26 284//26 282//26
f 216//43 200//43 199//43 215//43
f 195//44 211//44 212//44
f 204//45 203//45 219//45
f 213//46 214//46 198//46 197//46
f 251//23 235//23 234//23
f 233//23 232//23 246//23
f 226//24 240//24 254//24 244//24
f 230//47 246//47 231//47
f 266//30 276//30 279//30 270//30
f 253//48 250//48 242//48 255//48
f 220//18 219//18 235//18
f 213//18 212//18 228//18
f 221//23 220//23 236//23
f 214//18 213//18 229//18
f 222//16 221//16 237//16
f 228//18 212//18 211//18 227//18
f 258//49 259//49 246//49 244//49
f 311//50 307//50 308//50 312//50
f 239//18 223//18 222//18 238//18
f 234//18 218//18 217//18 233//18
f 275//30 261//30 265//30 280//30
f 231//18 232//18 216//18 215//18
f 260//23 245//23 247//23
f 250//48 252//48 251//48 242//48
f 265//51 256//51 247//51 264//51
f 244//24 254//24 248//24
f 243//52 245//52 260//52 257//52
f 322//18 321//18 325//18 323//18
f 252//30 254//30 237//30 236//30
f 252//51 236//51 235//51 251//51
f 256//51 253//51 255//51 247//51
f 225//53 226//53 244//53
f 239//54 238//54 254//54
f 227//53 225//53 244//53
f 240//54 239//54 254//54
f 296//55 292//55 290//55 294//55
f 296//56 295//56 291//56 292//56
f 261//30 241//30 256//30 265//30
f 249//30 248//30 250//30 253//30
f 246//57 230//57 229//57
f 259//23 255//23 242//23 246//23
f 254//30 238//30 237//30
f 244//58 246//58 229//58 228//58
f 248//24 249//24 258//24 244//24
f 275//24 276//24 267//24 277//24
f 325//51 270//51 269//51 324//51
f 262//24 243//24 241//24 261//24
f 259//23 260//23 247//23 255//23
f 284//59 263//59 245//59 282//59
f 270//51 279//51 273//51 269//51
f 276//24 266//24 267//24
f 280//51 265//51 264//51 274//51
f 282//60 245//60 243//60 281//60
f 226//18 225//18 209//18 210//18
f 226//18 210//18 224//18 240//18
f 225//18 227//18 211//18 209//18
f 314//16 310//16 309//16 313//16
f 257//61 260//61 259//61 258//61
f 279//51 280//51 274//51 273//51
f 286//62 282//62 281//62 285//62
f 263//23 264//23 247//23 245//23
f 264//23 263//23 271//23
f 285//29 281//29 283//29 287//29
f 272//63 271//63 278//63 277//63
f 284//64 283//64 262//64 263//64
f 292//26 288//26 286//26 290//26
f 287//65 283//65 284//65 288//65
f 233//23 246//23 251//23 234//23
f 291//18 287//18 288//18 292//18
f 294//66 290//66 289//66 293//66
f 290//16 286//16 285//16 289//16
f 298//67 294//67 293//67 297//67
f 294//26 298//26 300//26
f 295//68 293//68 289//68 291//68
f 268//69 272//69 277//69 267//69
f 283//70 281//70 243//70 262//70
f 299//29 303//29 301//29
f 299//71 295//71 296//71 300//71
f 293//29 295//29 299//29
f 302//72 298//72 297//72 301//72
f 302//26 306//26 308//26
f 313//73 309//73 311//73 315//73
f 298//26 302//26 304//26
f 307//74 303//74 304//74 308//74
f 309//29 305//29 307//29 311//29
f 303//29 307//29 305//29
f 320//58 318//58 317//58 319//58
f 316//75 312//75 310//75 314//75
f 276//30 275//30 280//30 279//30
f 218//76 219//76 203//76 202//76
f 309//77 310//77 306//77 305//77
f 314//26 318//26 320//26
f 230//18 231//18 215//18 214//18
f 316//18 315//18 311//18 312//18
f 323//58 268//58 267//58 322//58
f 320//78 319//78 315//78 316//78
f 313//29 315//29 319//29
f 271//79 263//79 262//79 278//79
f 321//30 266//30 270//30 325//30
f 306//80 302//80 301//80 305//80
f 322//24 267//24 266//24 321//24
