# Blender v2.78 (sub 0) OBJ File: ''
# www.blender.org
mtllib large_wrench.mtl
o SketchUp.005_ID32
v 0.032870 0.639327 0.018931
v 0.032870 0.639327 -0.019169
l 2 1
o SketchUp.004_ID28
v 0.000000 0.635000 0.018931
v 0.000000 0.635000 -0.019169
l 4 3
o SketchUp.003_ID22
v -0.032870 0.639327 0.018931
v -0.032870 0.639327 -0.019169
l 6 5
o SketchUp.002_ID16
v -0.018954 0.027157 0.012581
v -0.021141 0.032435 0.018931
v -0.018954 0.027157 0.018931
v -0.021141 0.032435 0.012581
v -0.022025 0.039154 0.018931
v -0.022025 0.039154 0.012581
v -0.015476 0.022624 0.012581
v -0.015476 0.022624 0.018931
v 0.005665 0.016959 0.012581
v -0.005665 0.016959 0.012581
v -0.000000 0.016213 0.012581
v 0.010943 0.019146 0.012581
v -0.010943 0.019146 0.012581
v 0.015476 0.022624 0.012581
v 0.018954 0.027157 0.012581
v 0.021141 0.032435 0.012581
v 0.022025 0.039154 0.012581
v 0.022025 0.586638 0.012581
v -0.022025 0.586638 0.012581
v 0.020735 0.589372 0.012581
v -0.020735 0.589372 0.012581
v 0.017743 0.593338 0.012581
v -0.017743 0.593338 0.012581
v -0.014004 0.596610 0.012581
v 0.014004 0.596610 0.012581
v 0.009677 0.599051 0.012581
v -0.009677 0.599051 0.012581
v 0.004942 0.600558 0.012581
v -0.004942 0.600558 0.012581
v 0.000000 0.601068 0.012581
v -0.022025 0.586638 0.018931
v -0.010943 0.019146 0.018931
v 0.022025 0.039154 0.018931
v 0.022025 0.586638 0.018931
v 0.020735 0.589372 0.018931
v 0.017743 0.593338 0.018931
v 0.014004 0.596610 0.018931
v 0.009677 0.599051 0.018931
v 0.004942 0.600558 0.018931
v 0.000000 0.601068 0.018931
v -0.004942 0.600558 0.018931
v -0.009677 0.599051 0.018931
v -0.014004 0.596610 0.018931
v -0.017743 0.593338 0.018931
v -0.020735 0.589372 0.018931
v -0.005665 0.016959 0.018931
v -0.000000 0.016213 0.018931
v 0.005665 0.016959 0.018931
v 0.010943 0.019146 0.018931
v 0.015476 0.022624 0.018931
v 0.018954 0.027157 0.018931
v 0.021141 0.032435 0.018931
vn 0.0000 0.0000 1.0000
vn -1.0000 0.0000 0.0000
vn 1.0000 0.0000 0.0000
vn 0.7092 0.1900 0.6789
vn 0.7197 0.0472 0.6926
vn 0.9978 0.0654 0.0000
vn 0.9659 0.2588 0.0000
vn 0.5192 0.5192 0.6789
vn 0.6359 0.3671 0.6789
vn 0.8660 0.5000 0.0000
vn 0.7071 0.7071 0.0000
vn 0.5000 0.8660 0.0000
vn 0.3671 0.6359 0.6789
vn 0.0000 1.0000 0.0000
vn 0.0000 0.7342 0.6789
vn 0.1900 0.7092 0.6789
vn 0.2588 0.9659 0.0000
vn -0.6359 0.3671 0.6789
vn -0.5192 0.5192 0.6789
vn -0.7071 0.7071 0.0000
vn -0.8660 0.5000 0.0000
vn -0.7092 0.1900 0.6789
vn -0.9659 0.2588 0.0000
vn -0.5337 -0.4963 0.6847
vn -0.6237 -0.3770 0.6847
vn -0.8558 -0.5172 0.0000
vn -0.7323 -0.6809 0.0000
vn 0.2911 -0.6681 0.6847
vn 0.3994 -0.9167 0.0000
vn 0.5780 -0.8160 0.0000
vn 0.4212 -0.5947 0.6847
vn -0.7322 -0.1641 0.6610
vn -0.9758 -0.2187 0.0000
vn -0.1487 -0.7135 0.6847
vn -0.2040 -0.9789 0.0000
vn 0.0000 -1.0000 0.0000
vn 0.0000 -0.7288 0.6847
vn -0.4212 -0.5947 0.6847
vn -0.5780 -0.8160 0.0000
vn -0.3994 -0.9167 0.0000
vn -0.2911 -0.6681 0.6847
vn 0.7323 -0.6809 0.0000
vn 0.5337 -0.4963 0.6847
vn -0.3671 0.6359 0.6789
vn -0.5000 0.8660 0.0000
vn -0.2588 0.9659 0.0000
vn -0.1900 0.7092 0.6789
vn 0.6237 -0.3770 0.6847
vn 0.8558 -0.5172 0.0000
vn 0.2040 -0.9789 0.0000
vn 0.1487 -0.7135 0.6847
vn -0.7197 0.0472 0.6926
vn -0.9978 0.0654 0.0000
vn 0.7322 -0.1641 0.6610
vn 0.9758 -0.2187 0.0000
usemtl Color_005_
s off
f 15//1 16//1 17//1
f 34//1 35//1 33//1 32//1
f 32//1 33//1 30//1 31//1
f 28//1 31//1 30//1 29//1
f 26//1 27//1 25//1 24//1
f 22//1 10//1 7//1 21//1
f 28//1 29//1 27//1 26//1
f 21//1 7//1 13//1 20//1
f 20//1 13//1 19//1 18//1
f 18//1 19//1 16//1 15//1
f 35//1 34//1 36//1
f 24//1 25//1 12//1 23//1
f 24//2 23//2 39//2 40//2
f 23//1 12//1 10//1 22//1
f 12//3 25//3 37//3 11//3
s 1
f 10//4 12//5 11//6 8//7
f 13//8 7//9 9//10 14//11
f 38//12 19//13 13//8 14//11
f 53//14 17//15 16//16 52//17
f 21//18 20//19 56//20 57//21
f 22//22 21//18 57//21 58//23
f 28//24 26//25 41//26 42//27
f 33//28 48//29 49//30 30//31
f 26//25 24//32 40//33 41//26
f 34//34 45//35 46//36 36//37
f 31//38 43//39 44//40 32//41
f 30//31 49//30 50//42 29//43
f 28//24 42//27 43//39 31//38
f 52//17 16//16 19//13 38//12
f 32//41 44//40 45//35 34//34
f 56//20 20//19 18//44 55//45
f 54//46 15//47 17//15 53//14
f 27//48 29//43 50//42 51//49
f 36//37 46//36 47//50 35//51
f 23//52 22//22 58//23 39//53
f 25//54 27//48 51//49 37//55
f 35//51 47//50 48//29 33//28
f 55//45 18//44 15//47 54//46
f 7//9 10//4 8//7 9//10
o SketchUp.001_ID10
v 0.009677 0.599051 -0.019169
v 0.004942 0.600558 -0.012819
v 0.004942 0.600558 -0.019169
v 0.009677 0.599051 -0.012819
v 0.000000 0.601068 -0.012819
v 0.000000 0.601068 -0.019169
v 0.014004 0.596610 -0.019169
v 0.014004 0.596610 -0.012819
v -0.005665 0.016959 -0.012819
v 0.005665 0.016959 -0.012819
v -0.000000 0.016213 -0.012819
v -0.010943 0.019146 -0.012819
v 0.010943 0.019146 -0.012819
v 0.015476 0.022624 -0.012819
v -0.015476 0.022624 -0.012819
v 0.018954 0.027157 -0.012819
v -0.018954 0.027157 -0.012819
v -0.021141 0.032435 -0.012819
v 0.021141 0.032435 -0.012819
v -0.022025 0.039154 -0.012819
v 0.022025 0.039154 -0.012819
v 0.022025 0.586638 -0.012819
v -0.022025 0.586638 -0.012819
v -0.020735 0.589372 -0.012819
v 0.020735 0.589372 -0.012819
v 0.017743 0.593338 -0.012819
v -0.017743 0.593338 -0.012819
v -0.014004 0.596610 -0.012819
v -0.009677 0.599051 -0.012819
v -0.004942 0.600558 -0.012819
v -0.004942 0.600558 -0.019169
v 0.017743 0.593338 -0.019169
v 0.022025 0.586638 -0.019169
v 0.022025 0.039154 -0.019169
v 0.021141 0.032435 -0.019169
v 0.018954 0.027157 -0.019169
v 0.015476 0.022624 -0.019169
v 0.010943 0.019146 -0.019169
v 0.005665 0.016959 -0.019169
v -0.000000 0.016213 -0.019169
v -0.005665 0.016959 -0.019169
v -0.010943 0.019146 -0.019169
v -0.015476 0.022624 -0.019169
v -0.018954 0.027157 -0.019169
v -0.021141 0.032435 -0.019169
v -0.022025 0.039154 -0.019169
v -0.022025 0.586638 -0.019169
v -0.020735 0.589372 -0.019169
v -0.017743 0.593338 -0.019169
v -0.014004 0.596610 -0.019169
v -0.009677 0.599051 -0.019169
v 0.020735 0.589372 -0.019169
vn 0.0000 0.0000 -1.0000
vn 1.0000 0.0000 0.0000
vn -1.0000 0.0000 0.0000
vn -0.5780 -0.8160 0.0000
vn -0.4212 -0.5947 -0.6847
vn -0.2911 -0.6681 -0.6847
vn -0.3994 -0.9167 0.0000
vn 0.5780 -0.8160 0.0000
vn 0.4212 -0.5947 -0.6847
vn 0.5337 -0.4963 -0.6847
vn 0.7323 -0.6809 0.0000
vn -0.7323 -0.6809 0.0000
vn -0.5337 -0.4963 -0.6847
vn 0.1900 0.7092 -0.6789
vn 0.2588 0.9659 0.0000
vn 0.5000 0.8660 0.0000
vn 0.3671 0.6359 -0.6789
vn -0.2040 -0.9789 0.0000
vn -0.1487 -0.7135 -0.6847
vn 0.0000 -0.7288 -0.6847
vn 0.0000 -1.0000 0.0000
vn -0.5192 0.5192 -0.6789
vn -0.7071 0.7071 0.0000
vn -0.5000 0.8660 0.0000
vn -0.3671 0.6359 -0.6789
vn 0.7071 0.7071 0.0000
vn 0.8660 0.5000 0.0000
vn 0.6359 0.3671 -0.6789
vn 0.5192 0.5192 -0.6789
vn 0.9659 0.2588 0.0000
vn 0.7092 0.1900 -0.6789
vn 0.3994 -0.9167 0.0000
vn 0.2911 -0.6681 -0.6847
vn 0.1487 -0.7135 -0.6847
vn 0.2040 -0.9789 0.0000
vn -0.9659 0.2588 0.0000
vn -0.8660 0.5000 0.0000
vn -0.6359 0.3671 -0.6789
vn -0.7092 0.1900 -0.6789
vn 0.9978 0.0654 0.0000
vn 0.7197 0.0472 -0.6926
vn -0.8558 -0.5172 0.0000
vn -0.9758 -0.2187 0.0000
vn -0.7322 -0.1641 -0.6610
vn -0.6237 -0.3770 -0.6847
vn 0.8558 -0.5172 0.0000
vn 0.6237 -0.3770 -0.6847
vn 0.9758 -0.2187 0.0000
vn 0.7322 -0.1641 -0.6610
vn -0.9978 0.0654 0.0000
vn -0.7197 0.0472 -0.6926
vn 0.0000 0.7342 -0.6789
vn 0.0000 1.0000 0.0000
vn -0.2588 0.9659 0.0000
vn -0.1900 0.7092 -0.6789
usemtl Color_005_
s off
f 78//56 81//56 80//56 79//56
f 67//56 68//56 69//56
f 88//56 60//56 62//56 87//56
f 87//56 62//56 66//56 86//56
f 86//56 66//56 84//56 85//56
f 82//56 83//56 80//56 81//56
f 76//56 77//56 74//56 75//56
f 82//56 85//56 84//56 83//56
f 73//56 75//56 74//56 72//56
f 70//56 73//56 72//56 71//56
f 70//56 71//56 68//56 67//56
f 60//56 88//56 63//56
f 104//57 105//57 81//57 78//57
f 78//56 79//56 77//56 76//56
f 91//58 92//58 79//58 80//58
s 1
f 65//59 66//60 62//61 59//62
f 108//63 86//64 85//65 107//66
f 90//67 84//68 66//60 65//59
f 67//69 99//70 100//71 70//72
f 61//73 60//74 63//75 64//76
f 72//77 95//78 96//79 71//80
f 101//81 102//82 75//83 73//84
f 102//82 103//85 76//86 75//83
f 109//87 87//88 86//64 108//63
f 64//76 63//75 88//89 89//90
f 93//91 94//92 74//93 77//94
f 103//85 104//95 78//96 76//86
f 70//72 100//71 101//81 73//84
f 110//97 91//98 80//99 83//100
f 106//101 107//66 85//65 82//102
f 105//103 106//101 82//102 81//104
f 92//105 93//91 77//94 79//106
f 94//92 95//78 72//77 74//93
f 69//107 98//108 99//70 67//69
f 90//67 110//97 83//100 84//68
f 71//80 96//79 97//109 68//110
f 68//110 97//109 98//108 69//107
f 89//90 88//89 87//88 109//87
f 59//62 62//61 60//74 61//73
o SketchUp_ID2
v -0.109985 0.698500 -0.025519
v -0.016435 0.700664 -0.025519
v 0.000000 0.698500 -0.025519
v -0.122673 0.729130 -0.025519
v -0.031750 0.707007 -0.025519
v -0.044901 0.717099 -0.025519
v -0.054993 0.730250 -0.025519
v -0.127000 0.762000 -0.025519
v -0.061336 0.745565 -0.025519
v -0.063500 0.762000 -0.025519
v -0.122673 0.794870 -0.025519
v -0.063500 0.861394 -0.025519
v -0.109985 0.825500 -0.025519
v -0.089803 0.851802 -0.025519
v -0.071903 0.865538 -0.025519
v -0.032870 0.639327 -0.025519
v 0.032870 0.639327 -0.025519
v 0.000000 0.635000 -0.025519
v 0.038100 0.641494 -0.025519
v -0.038100 0.641494 -0.025519
v -0.063500 0.652015 -0.025519
v 0.063500 0.652015 -0.025519
v 0.089803 0.672197 -0.025519
v -0.089803 0.672197 -0.025519
v 0.109985 0.698500 -0.025519
v 0.016435 0.700664 -0.025519
v 0.122673 0.729130 -0.025519
v 0.031750 0.707007 -0.025519
v 0.044901 0.717099 -0.025519
v 0.054993 0.730250 -0.025519
v 0.127000 0.762000 -0.025519
v 0.061336 0.745565 -0.025519
v 0.063500 0.762000 -0.025519
v 0.063500 0.862520 -0.025519
v 0.122673 0.794870 -0.025519
v 0.109985 0.825500 -0.025519
v 0.089803 0.851802 -0.025519
v 0.071009 0.866223 -0.025519
v -0.063500 0.861394 0.025281
v -0.063500 0.762000 0.025281
v -0.061336 0.745565 0.025281
v -0.054993 0.730250 0.025281
v -0.044901 0.717099 0.025281
v -0.031750 0.707007 0.025281
v -0.016435 0.700664 0.025281
v 0.000000 0.698500 0.025281
v 0.016435 0.700664 0.025281
v 0.031750 0.707007 0.025281
v 0.044901 0.717099 0.025281
v 0.054993 0.730250 0.025281
v 0.061336 0.745565 0.025281
v 0.063500 0.762000 0.025281
v 0.063500 0.862520 0.025281
v 0.071009 0.866223 0.025281
v 0.089803 0.851802 0.025281
v 0.109985 0.825500 0.025281
v 0.122673 0.794870 0.025281
v 0.127000 0.762000 0.025281
v 0.122673 0.729130 0.025281
v 0.109985 0.698500 0.025281
v 0.089803 0.672197 0.025281
v 0.063500 0.652015 0.025281
v 0.038100 0.641494 -0.019169
v 0.038100 0.641494 0.018931
v 0.038100 0.641494 0.025281
v 0.032870 0.639327 -0.019169
v 0.000000 0.635000 -0.019169
v -0.032870 0.639327 -0.019169
v -0.038100 0.641494 -0.019169
v -0.063500 0.652015 0.025281
v -0.038100 0.641494 0.025281
v -0.038100 0.641494 0.018931
v -0.089803 0.672197 0.025281
v -0.109985 0.698500 0.025281
v -0.122673 0.729130 0.025281
v -0.127000 0.762000 0.025281
v -0.122673 0.794870 0.025281
v -0.109985 0.825500 0.025281
v -0.089803 0.851802 0.025281
v -0.071903 0.865538 0.025281
v 0.032870 0.639327 0.025281
v -0.032870 0.639327 0.025281
v 0.000000 0.635000 0.025281
v 0.032870 0.639327 0.018931
v 0.038100 0.038100 -0.019169
v 0.038100 0.038100 0.018931
v -0.032996 0.019050 -0.019169
v -0.000000 0.016213 -0.019169
v -0.026941 0.011159 -0.019169
v -0.005665 0.016959 -0.019169
v -0.010943 0.019146 -0.019169
v -0.036802 0.028239 -0.019169
v -0.015476 0.022624 -0.019169
v -0.018954 0.027157 -0.019169
v -0.021141 0.032435 -0.019169
v -0.038100 0.038100 -0.019169
v -0.022025 0.039154 -0.019169
v -0.022025 0.586638 -0.019169
v -0.020735 0.589372 -0.019169
v -0.017743 0.593338 -0.019169
v -0.014004 0.596610 -0.019169
v -0.009677 0.599051 -0.019169
v -0.004942 0.600558 -0.019169
v 0.000000 0.601068 -0.019169
v -0.009861 0.001298 -0.019169
v 0.009861 0.001298 -0.019169
v 0.000000 0.000000 -0.019169
v 0.019050 0.005104 -0.019169
v -0.019050 0.005104 -0.019169
v 0.026941 0.011159 -0.019169
v 0.032996 0.019050 -0.019169
v 0.005665 0.016959 -0.019169
v 0.010943 0.019146 -0.019169
v 0.036802 0.028239 -0.019169
v 0.015476 0.022624 -0.019169
v 0.018954 0.027157 -0.019169
v 0.021141 0.032435 -0.019169
v 0.022025 0.039154 -0.019169
v 0.022025 0.586638 -0.019169
v 0.020735 0.589372 -0.019169
v 0.017743 0.593338 -0.019169
v 0.014004 0.596610 -0.019169
v 0.009677 0.599051 -0.019169
v 0.004942 0.600558 -0.019169
v -0.038100 0.038100 0.018931
v -0.032870 0.639327 0.018931
v 0.000000 0.635000 0.018931
v 0.009861 0.001298 0.018931
v -0.009861 0.001298 0.018931
v 0.000000 0.000000 0.018931
v 0.019050 0.005104 0.018931
v -0.019050 0.005104 0.018931
v 0.026941 0.011159 0.018931
v -0.026941 0.011159 0.018931
v 0.032996 0.019050 0.018931
v -0.000000 0.016213 0.018931
v 0.005665 0.016959 0.018931
v 0.010943 0.019146 0.018931
v 0.036802 0.028239 0.018931
v 0.015476 0.022624 0.018931
v 0.018954 0.027157 0.018931
v 0.021141 0.032435 0.018931
v 0.022025 0.039154 0.018931
v 0.022025 0.586638 0.018931
v 0.020735 0.589372 0.018931
v 0.017743 0.593338 0.018931
v 0.014004 0.596610 0.018931
v 0.009677 0.599051 0.018931
v 0.004942 0.600558 0.018931
v 0.000000 0.601068 0.018931
v -0.032996 0.019050 0.018931
v -0.005665 0.016959 0.018931
v -0.010943 0.019146 0.018931
v -0.036802 0.028239 0.018931
v -0.015476 0.022624 0.018931
v -0.018954 0.027157 0.018931
v -0.021141 0.032435 0.018931
v -0.022025 0.039154 0.018931
v -0.022025 0.586638 0.018931
v -0.020735 0.589372 0.018931
v -0.017743 0.593338 0.018931
v -0.014004 0.596610 0.018931
v -0.009677 0.599051 0.018931
v -0.004942 0.600558 0.018931
vn 0.0000 0.0000 1.0000
vn 0.0000 0.0000 -1.0000
vn 1.0000 0.0000 0.0000
vn -0.4423 0.8969 0.0000
vn 0.4423 0.8969 0.0000
vn -1.0000 0.0000 0.0000
vn 0.3671 -0.6359 -0.6789
vn 0.3671 -0.6359 0.6789
vn 0.2706 -0.6533 0.7071
vn 0.5990 -0.7729 0.2091
vn 0.6359 0.3671 -0.6789
vn 0.5192 0.5192 -0.6789
vn 0.5192 0.5192 0.6789
vn 0.6359 0.3671 0.6789
vn -0.6359 -0.3671 -0.6789
vn -0.5192 -0.5192 -0.6789
vn -0.5192 -0.5192 0.6789
vn -0.6359 -0.3671 0.6789
vn -0.1747 -0.6521 0.7377
vn -0.1900 -0.7092 0.6789
vn -0.2706 -0.6533 0.7071
vn -0.4302 -0.2875 0.8557
vn -0.7092 0.1900 -0.6789
vn -0.7342 0.0000 -0.6789
vn -0.7342 0.0000 0.6789
vn -0.7092 0.1900 0.6789
vn 0.2706 -0.6533 -0.7071
vn 0.5990 -0.7729 -0.2091
vn 0.1747 -0.6521 -0.7377
vn 0.1900 -0.7092 -0.6789
vn 0.0000 -0.7342 -0.6789
vn 0.0000 -0.7342 0.6789
vn -0.1900 -0.7092 -0.6789
vn 0.1747 -0.6521 0.7377
vn 0.1900 -0.7092 0.6789
vn -0.7092 -0.1900 -0.6789
vn -0.7092 -0.1900 0.6789
vn 0.3375 0.5847 0.7377
vn 0.3375 0.5847 -0.7377
vn 0.5192 -0.5192 -0.6789
vn 0.6359 -0.3671 -0.6789
vn 0.6359 -0.3671 0.6789
vn 0.5192 -0.5192 0.6789
vn -0.7197 -0.0472 -0.6926
vn -0.7197 -0.0472 0.6926
vn 0.1747 0.6521 0.7377
vn 0.1747 0.6521 -0.7377
vn 0.0000 0.7041 0.7101
vn 0.0000 0.7041 -0.7101
vn -0.5192 0.5192 -0.6789
vn -0.6359 0.3671 -0.6789
vn -0.6359 0.3671 0.6789
vn -0.5192 0.5192 0.6789
vn -0.3671 -0.6359 -0.6789
vn -0.3671 -0.6359 0.6789
vn -0.3375 0.5847 -0.7377
vn -0.3375 0.5847 0.7377
vn -0.2706 -0.6533 -0.7071
vn 0.7092 0.1900 -0.6789
vn 0.7092 0.1900 0.6789
vn 0.7092 -0.1900 -0.6789
vn 0.7197 -0.0472 -0.6926
vn 0.7197 -0.0472 0.6926
vn 0.7092 -0.1900 0.6789
vn 0.7342 0.0000 -0.6789
vn 0.7342 0.0000 0.6789
vn -0.5847 0.3375 -0.7377
vn -0.5847 0.3375 0.7377
vn 0.5847 0.3375 -0.7377
vn 0.6521 0.1747 -0.7377
vn 0.6521 0.1747 0.7377
vn 0.5847 0.3375 0.7377
vn -0.6903 0.0452 -0.7221
vn -0.6521 0.1747 -0.7377
vn -0.6521 0.1747 0.7377
vn -0.6903 0.0452 0.7221
vn 0.6903 0.0452 -0.7221
vn 0.6903 0.0452 0.7221
vn -0.1747 -0.6521 -0.7377
vn -0.6646 -0.4441 0.6008
vn -0.0780 0.7921 0.6053
vn -0.0780 0.7921 -0.6053
vn -0.1747 0.6521 0.7377
vn -0.1747 0.6521 -0.7377
vn 0.0780 0.7921 -0.6053
vn 0.0780 0.7921 0.6053
usemtl Color_005_
s off
f 156//111 155//111 184//111 170//111
f 136//112 138//112 137//112 135//112
f 139//112 140//112 137//112 138//112
f 168//111 161//111 160//111 169//111
f 140//112 142//112 141//112 137//112
f 167//111 166//111 163//111 162//111
f 149//111 190//111 189//111 188//111
f 126//112 127//112 128//112
f 175//111 181//111 192//111 191//111
f 172//111 180//111 181//111 175//111
f 199//112 220//112 218//112 219//112
f 228//112 229//112 173//112 195//112
f 135//112 113//112 136//112
f 155//111 154//111 185//111 184//111
f 169//111 160//111 159//111 158//111
f 118//112 119//112 117//112 114//112
f 141//112 142//112 143//112
f 145//112 144//112 146//112
f 165//111 164//111 163//111 166//111
f 195//113 173//113 174//113 196//113
f 206//112 207//112 205//112 202//112
f 120//113 122//113 149//113 150//113
f 199//112 198//112 221//112 220//112
f 121//112 123//112 122//112 120//112
f 164//114 148//114 144//114 163//114
f 135//112 111//112 112//112 113//112
f 149//115 122//115 125//115 190//115
f 170//111 157//111 156//111
f 171//111 183//111 180//111 172//111
f 153//111 152//111 185//111 154//111
f 168//111 167//111 162//111 161//111
f 152//111 151//111 186//111 185//111
f 170//111 184//111 183//111 171//111
f 124//112 125//112 122//112 123//112
f 191//111 192//111 193//111
f 215//112 219//112 218//112 216//112
f 238//111 241//111 239//111 240//111
f 131//112 134//112 133//112 132//112
f 134//112 111//112 135//112 133//112
f 169//111 158//111 157//111 170//111
f 222//112 223//112 221//112 198//112
f 149//111 187//111 186//111 150//111
f 186//111 151//111 150//111
f 144//112 145//112 141//112 143//112
f 187//111 149//111 188//111
f 114//112 115//112 112//112 111//112
f 241//111 243//111 242//111 239//111
f 200//112 197//112 201//112
f 243//111 245//111 244//111 242//111
f 226//112 227//112 224//112 225//112
f 267//111 268//111 235//111 264//111
f 223//112 225//112 224//112 221//112
f 174//111 256//111 255//111 254//111
f 232//112 233//112 173//112 231//112
f 212//112 179//112 213//112
f 174//111 194//111 260//111 259//111
f 114//112 117//112 116//112 115//112
f 215//112 216//112 217//112
f 131//112 132//112 129//112 130//112
f 246//111 262//111 261//111 244//111
f 126//112 130//112 129//112 127//112
f 179//111 182//111 181//111 130//111
f 263//111 265//111 264//111 261//111
f 179//112 210//112 209//112 208//112
f 118//112 121//112 120//112 119//112
f 174//111 254//111 253//111 196//111
f 236//111 260//111 194//111 237//111
f 266//111 267//111 264//111 265//111
f 173//112 233//112 234//112
f 260//111 236//111 182//111 274//111
f 245//111 247//111 246//111 244//111
f 214//112 176//112 173//112 234//112
f 174//111 258//111 257//111 256//111
f 247//111 245//111 248//111
f 202//112 203//112 201//112 197//112
f 202//112 205//112 204//112 203//112
f 227//112 228//112 195//112 224//112
f 268//111 269//111 182//111 235//111
f 270//111 271//111 182//111 269//111
f 272//111 273//111 182//111 271//111
f 258//111 174//111 259//111
f 144//112 148//112 147//112 146//112
f 176//112 214//112 178//112 177//112
f 197//112 200//112 198//112 199//112
f 261//111 262//111 263//111
f 249//111 250//111 248//111 245//111
f 249//111 252//111 251//111 250//111
f 196//111 253//111 252//111 249//111
f 179//112 208//112 207//112 206//112
f 230//112 231//112 173//112 229//112
f 179//112 212//112 211//112 210//112
f 182//111 273//111 274//111
f 179//112 178//112 214//112 213//112
f 179//116 206//116 235//116 182//116
f 144//116 143//116 162//116 163//116
s 1
f 132//117 172//118 175//119 174//120
f 146//121 147//122 165//123 166//124
f 197//125 199//126 244//127 261//128
f 236//129 192//130 181//131 182//132
f 121//133 118//134 186//135 187//136
f 129//137 173//138 176//139 127//140
f 217//141 240//142 239//130 215//143
f 194//144 191//145 193//142 237//142
f 218//117 241//118 238//145 216//140
f 114//146 111//125 184//128 185//147
f 127//140 176//139 177//141 128//141
f 174//120 175//119 191//145 194//144
f 154//148 115//149 116//122 153//123
f 133//150 135//151 170//152 171//153
f 206//154 202//146 264//147 235//155
f 216//140 238//145 240//142 217//141
f 220//150 221//151 245//152 243//153
f 155//156 112//157 115//149 154//148
f 156//158 113//159 112//157 155//156
f 124//160 123//161 188//162 189//163
f 219//164 242//165 244//127 199//126
f 159//163 139//160 138//166 158//167
f 118//134 114//146 185//147 186//135
f 130//168 181//131 180//165 131//164
f 145//169 146//121 166//124 167//170
f 202//146 197//125 261//128 264//147
f 224//171 195//172 196//173 249//174
f 141//175 145//169 167//170 168//176
f 140//177 139//160 159//163 160//178
f 117//179 119//180 151//181 152//182
f 237//142 193//142 192//130 236//129
f 143//183 142//184 161//185 162//186
f 119//180 120//187 150//188 151//181
f 128//141 177//141 178//189 126//143
f 215//143 239//130 242//165 219//164
f 221//151 224//171 249//174 245//152
f 220//150 243//153 241//118 218//117
f 133//150 171//153 172//118 132//117
f 126//143 178//189 179//190 130//168
f 132//117 174//120 173//138 129//137
f 135//151 137//171 169//174 170//152
f 190//191 125//192 124//160 189//163
f 123//161 121//133 187//136 188//162
f 157//193 136//194 113//159 156//158
f 137//171 141//175 168//176 169//174
f 111//125 134//126 183//127 184//128
f 165//123 147//122 148//195 164//196
f 158//167 138//166 136//194 157//193
f 142//184 140//177 160//178 161//185
f 116//122 117//179 152//182 153//123
f 131//164 180//165 183//127 134//126
