# Blender v2.79 (sub 0) OBJ File: 'Track Exchanger.blend'
# www.blender.org
mtllib track_exchanger.mtl
o Cube_Cube.001
v -0.098000 0.062000 0.008000
v -0.098000 0.078000 0.008000
v -0.098000 0.062000 -0.008000
v -0.098000 0.078000 -0.008000
v -0.012000 0.062000 0.008000
v -0.012000 0.078000 0.008000
v -0.012000 0.062000 -0.008000
v -0.012000 0.078000 -0.008000
v 0.008000 0.078000 -0.008000
v 0.008000 0.062000 -0.008000
v 0.008000 0.062000 0.008000
v 0.008000 0.078000 0.008000
v -0.098000 -0.062000 0.008000
v -0.098000 -0.078000 0.008000
v -0.098000 -0.062000 -0.008000
v -0.098000 -0.078000 -0.008000
v -0.012000 -0.062000 0.008000
v -0.012000 -0.078000 0.008000
v -0.012000 -0.062000 -0.008000
v -0.012000 -0.078000 -0.008000
v 0.008000 -0.078000 -0.008000
v 0.008000 -0.062000 -0.008000
v 0.008000 -0.062000 0.008000
v 0.008000 -0.078000 0.008000
v -0.012000 0.000000 0.008000
v -0.012000 0.000000 -0.008000
v 0.008000 0.000000 0.008000
v 0.008000 0.000000 -0.008000
v -0.118272 -0.107374 0.015000
v -0.094688 -0.120958 -0.015000
v -0.440801 -0.120958 -0.015000
v -0.414992 -0.107374 0.015000
v -0.118272 0.105458 0.015000
v -0.094688 0.119042 -0.015000
v -0.440801 0.119042 -0.015000
v -0.414992 0.105458 0.015000
v -0.440801 -0.120958 0.015000
v -0.094688 -0.120958 0.015000
v -0.440801 0.119042 0.015000
v -0.094688 0.119042 0.015000
v -0.414992 -0.107374 0.005000
v -0.118272 -0.107374 0.005000
v -0.414992 0.105458 0.005000
v -0.118272 0.105458 0.005000
v -0.114640 -0.029118 0.018264
v -0.114640 -0.012798 0.018264
v -0.114640 -0.029118 0.011736
v -0.114640 -0.012798 0.011736
v -0.098320 -0.029118 0.018264
v -0.098320 -0.012798 0.018264
v -0.098320 -0.029118 0.011736
v -0.098320 -0.012798 0.011736
v -0.431376 -0.005854 0.016243
v -0.431376 0.003938 0.016243
v -0.431376 -0.005854 0.012326
v -0.431376 0.003938 0.012326
v -0.421584 -0.005854 0.016243
v -0.421584 0.003938 0.016243
v -0.421584 -0.005854 0.012326
v -0.421584 0.003938 0.012326
v -0.114640 0.010882 0.018264
v -0.114640 0.027202 0.018264
v -0.114640 0.010882 0.011736
v -0.114640 0.027202 0.011736
v -0.098320 0.010882 0.018264
v -0.098320 0.027202 0.018264
v -0.098320 0.010882 0.011736
v -0.098320 0.027202 0.011736
vt 0.729370 0.833669
vt 0.739303 0.823736
vt 0.739303 0.833669
vt 0.399089 0.363876
vt 0.452480 0.373809
vt 0.399089 0.373809
vt 0.452480 0.363876
vt 0.464897 0.373809
vt 0.576646 0.363876
vt 0.630037 0.373809
vt 0.576646 0.373809
vt 0.838636 0.800145
vt 0.848569 0.853536
vt 0.838636 0.853536
vt 0.291065 0.743893
vt 0.281131 0.690502
vt 0.291065 0.690502
vt 0.165141 0.744270
vt 0.155207 0.734337
vt 0.165141 0.734337
vt 0.564230 0.363876
vt 0.452480 0.412301
vt 0.291065 0.678085
vt 0.165141 0.695845
vt 0.739303 0.647421
vt 0.729370 0.685912
vt 0.729370 0.647421
vt 0.564230 0.412301
vt 0.564230 0.373809
vt 0.834911 0.529016
vt 0.844844 0.538950
vt 0.834911 0.538950
vt 0.452480 0.450792
vt 0.399089 0.460725
vt 0.399089 0.450792
vt 0.464897 0.450792
vt 0.452480 0.460725
vt 0.630037 0.450792
vt 0.576646 0.460725
vt 0.576646 0.450792
vt 0.838636 0.700812
vt 0.848569 0.647421
vt 0.848569 0.700812
vt 0.844844 0.376292
vt 0.834911 0.429684
vt 0.834911 0.376292
vt 0.155207 0.657354
vt 0.165141 0.647421
vt 0.165141 0.657354
vt 0.564230 0.460725
vt 0.834911 0.363876
vt 0.739303 0.724403
vt 0.729370 0.724403
vt 0.564230 0.450792
vt 0.546330 0.049666
vt 0.564955 0.264543
vt 0.546330 0.264543
vt 0.399089 0.560058
vt 0.417714 0.709057
vt 0.399089 0.709057
vt 0.535671 0.560058
vt 0.517047 0.709057
vt 0.517047 0.560058
vt 0.299756 0.363876
vt 0.281132 0.578753
vt 0.281131 0.363876
vt 0.446997 0.264543
vt 0.297998 0.049666
vt 0.446997 0.049666
vt 0.769828 0.049666
vt 0.776037 0.181799
vt 0.769828 0.181799
vt 0.058100 0.248520
vt 0.049666 0.049666
vt 0.058100 0.064308
vt 0.198665 0.264543
vt 0.049666 0.264543
vt 0.198665 0.049666
vt 0.190232 0.064308
vt 0.190232 0.248520
vt 0.049666 0.363876
vt 0.181799 0.548088
vt 0.049666 0.548088
vt 0.664287 0.049666
vt 0.670496 0.233878
vt 0.664287 0.233878
vt 0.735578 0.548088
vt 0.729370 0.363876
vt 0.735578 0.363876
vt 0.049666 0.647421
vt 0.055875 0.779553
vt 0.049666 0.779553
vt 0.502474 0.917854
vt 0.506527 0.927986
vt 0.502474 0.927986
vt 0.159260 0.853735
vt 0.155207 0.843603
vt 0.159260 0.843603
vt 0.399089 0.808390
vt 0.409221 0.818521
vt 0.399089 0.818521
vt 0.609913 0.927986
vt 0.605860 0.917854
vt 0.609913 0.917854
vt 0.049666 0.878886
vt 0.053719 0.889018
vt 0.049666 0.889018
vt 0.947902 0.647421
vt 0.950334 0.653500
vt 0.947902 0.653500
vt 0.946609 0.369955
vt 0.944177 0.363876
vt 0.946609 0.363876
vt 0.729370 0.933002
vt 0.735449 0.939081
vt 0.729370 0.939081
vt 0.946609 0.475367
vt 0.944177 0.469288
vt 0.946609 0.469288
vt 0.626511 0.808390
vt 0.628943 0.814469
vt 0.626511 0.814469
vt 0.875369 0.159131
vt 0.879422 0.169263
vt 0.875369 0.169263
vt 0.879422 0.059798
vt 0.875369 0.049666
vt 0.879422 0.049666
vt 0.517047 0.808390
vt 0.527179 0.818521
vt 0.517047 0.818521
vt 0.285184 0.853358
vt 0.281131 0.843226
vt 0.285184 0.843226
vt 0.399089 0.917854
vt 0.403142 0.927986
vt 0.399089 0.927986
vt 0.729370 0.823736
vt 0.464897 0.363876
vt 0.630037 0.363876
vt 0.848569 0.800145
vt 0.281132 0.743893
vt 0.155207 0.744270
vt 0.464897 0.412301
vt 0.281131 0.678085
vt 0.155207 0.695845
vt 0.739303 0.685912
vt 0.576646 0.412301
vt 0.844844 0.529016
vt 0.464897 0.460725
vt 0.630037 0.460725
vt 0.838636 0.647421
vt 0.844844 0.429684
vt 0.155207 0.647421
vt 0.844844 0.363876
vt 0.564955 0.049666
vt 0.417714 0.560058
vt 0.535671 0.709057
vt 0.299756 0.578753
vt 0.297998 0.264543
vt 0.776037 0.049666
vt 0.181799 0.363876
vt 0.670496 0.049666
vt 0.729370 0.548088
vt 0.055875 0.647421
vt 0.506527 0.917854
vt 0.155207 0.853735
vt 0.409221 0.808390
vt 0.605860 0.927986
vt 0.053719 0.878886
vt 0.950334 0.647421
vt 0.944177 0.369955
vt 0.735449 0.933002
vt 0.944177 0.475367
vt 0.628943 0.808390
vt 0.879422 0.159131
vt 0.875369 0.059798
vt 0.527179 0.808390
vt 0.281131 0.853358
vt 0.403142 0.917854
vn -1.0000 0.0000 0.0000
vn 0.0000 0.0000 -1.0000
vn 0.0000 0.0000 1.0000
vn 0.0000 -1.0000 0.0000
vn 0.0000 1.0000 0.0000
vn 1.0000 0.0000 0.0000
usemtl tablet
s off
f 2/1/1 3/2/1 1/3/1
f 4/4/2 7/5/2 3/6/2
f 8/7/2 10/8/2 7/5/2
f 6/9/3 1/10/3 5/11/3
f 7/12/4 1/13/4 3/14/4
f 4/15/5 6/16/5 8/17/5
f 9/18/6 11/19/6 10/20/6
f 5/11/3 12/21/3 6/9/3
f 10/8/2 26/22/2 7/5/2
f 6/16/5 9/23/5 8/17/5
f 11/19/6 28/24/6 10/20/6
f 7/25/1 25/26/1 5/27/1
f 5/11/3 27/28/3 11/29/3
f 15/30/1 14/31/1 13/32/1
f 19/33/2 16/34/2 15/35/2
f 22/36/2 20/37/2 19/33/2
f 13/38/3 18/39/3 17/40/3
f 13/41/5 19/42/5 15/43/5
f 18/44/4 16/45/4 20/46/4
f 23/47/6 21/48/6 22/49/6
f 24/50/3 17/40/3 18/39/3
f 26/22/2 22/36/2 19/33/2
f 21/51/4 18/44/4 20/46/4
f 28/24/6 23/47/6 22/49/6
f 25/26/1 19/52/1 17/53/1
f 27/28/3 17/40/3 23/54/3
f 30/55/4 37/56/4 31/57/4
f 39/58/1 31/59/1 37/60/1
f 30/61/6 40/62/6 38/63/6
f 34/64/5 39/65/5 40/66/5
f 31/67/2 34/68/2 30/69/2
f 33/70/1 42/71/1 29/72/1
f 32/73/3 38/74/3 29/75/3
f 32/73/3 39/76/3 37/77/3
f 29/75/3 40/78/3 33/79/3
f 36/80/3 40/78/3 39/76/3
f 42/81/3 43/82/3 41/83/3
f 29/84/5 41/85/5 32/86/5
f 36/87/4 44/88/4 33/89/4
f 32/90/6 43/91/6 36/92/6
f 46/93/1 47/94/1 45/95/1
f 52/96/6 49/97/6 51/98/6
f 50/99/3 45/100/3 49/101/3
f 51/102/4 45/103/4 47/104/4
f 48/105/5 50/106/5 52/107/5
f 54/108/1 55/109/1 53/110/1
f 60/111/6 57/112/6 59/113/6
f 58/114/3 53/115/3 57/116/3
f 59/117/4 53/118/4 55/119/4
f 56/120/5 58/121/5 60/122/5
f 62/123/1 63/124/1 61/125/1
f 68/126/6 65/127/6 67/128/6
f 66/129/3 61/130/3 65/131/3
f 67/132/4 61/133/4 63/134/4
f 64/135/5 66/136/5 68/137/5
f 2/1/1 4/138/1 3/2/1
f 4/4/2 8/7/2 7/5/2
f 8/7/2 9/139/2 10/8/2
f 6/9/3 2/140/3 1/10/3
f 7/12/4 5/141/4 1/13/4
f 4/15/5 2/142/5 6/16/5
f 9/18/6 12/143/6 11/19/6
f 5/11/3 11/29/3 12/21/3
f 10/8/2 28/144/2 26/22/2
f 6/16/5 12/145/5 9/23/5
f 11/19/6 27/146/6 28/24/6
f 7/25/1 26/147/1 25/26/1
f 5/11/3 25/148/3 27/28/3
f 15/30/1 16/149/1 14/31/1
f 19/33/2 20/37/2 16/34/2
f 22/36/2 21/150/2 20/37/2
f 13/38/3 14/151/3 18/39/3
f 13/41/5 17/152/5 19/42/5
f 18/44/4 14/153/4 16/45/4
f 23/47/6 24/154/6 21/48/6
f 24/50/3 23/54/3 17/40/3
f 26/22/2 28/144/2 22/36/2
f 21/51/4 24/155/4 18/44/4
f 28/24/6 27/146/6 23/47/6
f 25/26/1 26/147/1 19/52/1
f 27/28/3 25/148/3 17/40/3
f 30/55/4 38/156/4 37/56/4
f 39/58/1 35/157/1 31/59/1
f 30/61/6 34/158/6 40/62/6
f 34/64/5 35/159/5 39/65/5
f 31/67/2 35/160/2 34/68/2
f 33/70/1 44/161/1 42/71/1
f 32/73/3 37/77/3 38/74/3
f 32/73/3 36/80/3 39/76/3
f 29/75/3 38/74/3 40/78/3
f 36/80/3 33/79/3 40/78/3
f 42/81/3 44/162/3 43/82/3
f 29/84/5 42/163/5 41/85/5
f 36/87/4 43/164/4 44/88/4
f 32/90/6 41/165/6 43/91/6
f 46/93/1 48/166/1 47/94/1
f 52/96/6 50/167/6 49/97/6
f 50/99/3 46/168/3 45/100/3
f 51/102/4 49/169/4 45/103/4
f 48/105/5 46/170/5 50/106/5
f 54/108/1 56/171/1 55/109/1
f 60/111/6 58/172/6 57/112/6
f 58/114/3 54/173/3 53/115/3
f 59/117/4 57/174/4 53/118/4
f 56/120/5 54/175/5 58/121/5
f 62/123/1 64/176/1 63/124/1
f 68/126/6 66/177/6 65/127/6
f 66/129/3 62/178/3 61/130/3
f 67/132/4 65/179/4 61/133/4
f 64/135/5 62/180/5 66/136/5
